<svg xmlns="http://www.w3.org/2000/svg" width="160" height="160" viewBox="0 0 160 160" role="img" aria-labelledby="logo-title">
  <title id="logo-title">OpenDPD Studio</title>
  <g fill="none" stroke-linecap="round" stroke-linejoin="round">
    <path d="M14.4 68 A52 52 0 0 1 108.612 51.679 M108.612 108.321 A52 52 0 0 1 14.4 92" stroke="#37b9e8" stroke-width="9"/>
    <path d="M100 63 H115 Q117 63 118.4 61.6 L132.6 47.4 Q134 46 135.5 46 M100 97 H115 Q117 97 118.4 98.4 L132.6 112.6 Q134 114 135.5 114 M85 80 H142.5" stroke="#37b9e8" stroke-width="5"/>
    <path d="M13 80 H26 C31 80 30 61 35 61 S40 99 45 99 S50 48 56 48 S61 112 67 112 S72 73 78 73 C82 73 82 80 86 80" stroke="#99e4f3" stroke-width="5"/>
    <g stroke="#37b9e8" stroke-width="5">
      <circle cx="142" cy="46" r="6.5"/>
      <circle cx="149" cy="80" r="6.5"/>
      <circle cx="142" cy="114" r="6.5"/>
    </g>
  </g>
</svg>
