<?xml version="1.0" encoding="UTF-8" standalone="no"?>
<svg
   width="931"
   height="940"
   xml:space="preserve"
   overflow="hidden"
   version="1.1"
   id="svg103"
   sodipodi:docname="OpenDPDlogo.svg"
   inkscape:version="1.3 (0e150ed6c4, 2023-07-21)"
   inkscape:export-filename="OpenDPDlogo.png"
   inkscape:export-xdpi="96"
   inkscape:export-ydpi="96"
   xmlns:inkscape="http://www.inkscape.org/namespaces/inkscape"
   xmlns:sodipodi="http://sodipodi.sourceforge.net/DTD/sodipodi-0.dtd"
   xmlns="http://www.w3.org/2000/svg"
   xmlns:svg="http://www.w3.org/2000/svg"><sodipodi:namedview
     id="namedview103"
     pagecolor="#ffffff"
     bordercolor="#000000"
     borderopacity="0.25"
     inkscape:showpageshadow="2"
     inkscape:pageopacity="0.0"
     inkscape:pagecheckerboard="0"
     inkscape:deskcolor="#d1d1d1"
     inkscape:zoom="0.60931542"
     inkscape:cx="205.14826"
     inkscape:cy="641.70377"
     inkscape:window-width="1920"
     inkscape:window-height="1009"
     inkscape:window-x="-8"
     inkscape:window-y="-6"
     inkscape:window-maximized="1"
     inkscape:current-layer="g102" /><defs
     id="defs30"><filter
       id="fx0"
       x="-10%"
       y="-10%"
       width="120%"
       height="120%"
       filterUnits="userSpaceOnUse"
       primitiveUnits="userSpaceOnUse"><feComponentTransfer
         color-interpolation-filters="sRGB"
         id="feComponentTransfer1"><feFuncR
           type="discrete"
           tableValues="0.000000 0.000000"
           id="feFuncR1" /><feFuncG
           type="discrete"
           tableValues="0.000000 0.000000"
           id="feFuncG1" /><feFuncB
           type="discrete"
           tableValues="0.000000 0.000000"
           id="feFuncB1" /><feFuncA
           type="linear"
           slope="0.400000"
           intercept="0.000000"
           id="feFuncA1" /></feComponentTransfer><feGaussianBlur
         stdDeviation="6.111111 6.111111"
         id="feGaussianBlur1" /></filter><filter
       id="fx1"
       x="-10%"
       y="-10%"
       width="120%"
       height="120%"
       filterUnits="userSpaceOnUse"
       primitiveUnits="userSpaceOnUse"><feComponentTransfer
         color-interpolation-filters="sRGB"
         id="feComponentTransfer2"><feFuncR
           type="discrete"
           tableValues="0.000000 0.000000"
           id="feFuncR2" /><feFuncG
           type="discrete"
           tableValues="0.000000 0.000000"
           id="feFuncG2" /><feFuncB
           type="discrete"
           tableValues="0.000000 0.000000"
           id="feFuncB2" /><feFuncA
           type="linear"
           slope="0.400000"
           intercept="0.000000"
           id="feFuncA2" /></feComponentTransfer><feGaussianBlur
         stdDeviation="6.111111 6.111111"
         id="feGaussianBlur2" /></filter><filter
       id="fx2"
       x="-10%"
       y="-10%"
       width="120%"
       height="120%"
       filterUnits="userSpaceOnUse"
       primitiveUnits="userSpaceOnUse"><feComponentTransfer
         color-interpolation-filters="sRGB"
         id="feComponentTransfer3"><feFuncR
           type="discrete"
           tableValues="0.000000 0.000000"
           id="feFuncR3" /><feFuncG
           type="discrete"
           tableValues="0.000000 0.000000"
           id="feFuncG3" /><feFuncB
           type="discrete"
           tableValues="0.000000 0.000000"
           id="feFuncB3" /><feFuncA
           type="linear"
           slope="0.400000"
           intercept="0.000000"
           id="feFuncA3" /></feComponentTransfer><feGaussianBlur
         stdDeviation="4.583333 4.583333"
         id="feGaussianBlur3" /></filter><filter
       id="fx3"
       x="-10%"
       y="-10%"
       width="120%"
       height="120%"
       filterUnits="userSpaceOnUse"
       primitiveUnits="userSpaceOnUse"><feComponentTransfer
         color-interpolation-filters="sRGB"
         id="feComponentTransfer4"><feFuncR
           type="discrete"
           tableValues="0.000000 0.000000"
           id="feFuncR4" /><feFuncG
           type="discrete"
           tableValues="0.000000 0.000000"
           id="feFuncG4" /><feFuncB
           type="discrete"
           tableValues="0.000000 0.000000"
           id="feFuncB4" /><feFuncA
           type="linear"
           slope="0.400000"
           intercept="0.000000"
           id="feFuncA4" /></feComponentTransfer><feGaussianBlur
         stdDeviation="4.583333 4.583333"
         id="feGaussianBlur4" /></filter><filter
       id="fx4"
       x="-10%"
       y="-10%"
       width="120%"
       height="120%"
       filterUnits="userSpaceOnUse"
       primitiveUnits="userSpaceOnUse"><feComponentTransfer
         color-interpolation-filters="sRGB"
         id="feComponentTransfer5"><feFuncR
           type="discrete"
           tableValues="0.000000 0.000000"
           id="feFuncR5" /><feFuncG
           type="discrete"
           tableValues="0.000000 0.000000"
           id="feFuncG5" /><feFuncB
           type="discrete"
           tableValues="0.000000 0.000000"
           id="feFuncB5" /><feFuncA
           type="linear"
           slope="0.400000"
           intercept="0.000000"
           id="feFuncA5" /></feComponentTransfer><feGaussianBlur
         stdDeviation="4.583333 4.583333"
         id="feGaussianBlur5" /></filter><filter
       id="fx5"
       x="-10%"
       y="-10%"
       width="120%"
       height="120%"
       filterUnits="userSpaceOnUse"
       primitiveUnits="userSpaceOnUse"><feComponentTransfer
         color-interpolation-filters="sRGB"
         id="feComponentTransfer6"><feFuncR
           type="discrete"
           tableValues="0.000000 0.000000"
           id="feFuncR6" /><feFuncG
           type="discrete"
           tableValues="0.000000 0.000000"
           id="feFuncG6" /><feFuncB
           type="discrete"
           tableValues="0.000000 0.000000"
           id="feFuncB6" /><feFuncA
           type="linear"
           slope="0.400000"
           intercept="0.000000"
           id="feFuncA6" /></feComponentTransfer><feGaussianBlur
         stdDeviation="4.583333 4.583333"
         id="feGaussianBlur6" /></filter><filter
       id="fx6"
       x="-10%"
       y="-10%"
       width="120%"
       height="120%"
       filterUnits="userSpaceOnUse"
       primitiveUnits="userSpaceOnUse"><feComponentTransfer
         color-interpolation-filters="sRGB"
         id="feComponentTransfer7"><feFuncR
           type="discrete"
           tableValues="0.000000 0.000000"
           id="feFuncR7" /><feFuncG
           type="discrete"
           tableValues="0.000000 0.000000"
           id="feFuncG7" /><feFuncB
           type="discrete"
           tableValues="0.000000 0.000000"
           id="feFuncB7" /><feFuncA
           type="linear"
           slope="0.400000"
           intercept="0.000000"
           id="feFuncA7" /></feComponentTransfer><feGaussianBlur
         stdDeviation="4.583333 4.583333"
         id="feGaussianBlur7" /></filter><filter
       id="fx7"
       x="-10%"
       y="-10%"
       width="120%"
       height="120%"
       filterUnits="userSpaceOnUse"
       primitiveUnits="userSpaceOnUse"><feComponentTransfer
         color-interpolation-filters="sRGB"
         id="feComponentTransfer8"><feFuncR
           type="discrete"
           tableValues="0.000000 0.000000"
           id="feFuncR8" /><feFuncG
           type="discrete"
           tableValues="0.000000 0.000000"
           id="feFuncG8" /><feFuncB
           type="discrete"
           tableValues="0.000000 0.000000"
           id="feFuncB8" /><feFuncA
           type="linear"
           slope="0.400000"
           intercept="0.000000"
           id="feFuncA8" /></feComponentTransfer><feGaussianBlur
         stdDeviation="4.583333 4.583333"
         id="feGaussianBlur8" /></filter><filter
       id="fx8"
       x="-10%"
       y="-10%"
       width="120%"
       height="120%"
       filterUnits="userSpaceOnUse"
       primitiveUnits="userSpaceOnUse"><feComponentTransfer
         color-interpolation-filters="sRGB"
         id="feComponentTransfer9"><feFuncR
           type="discrete"
           tableValues="0.000000 0.000000"
           id="feFuncR9" /><feFuncG
           type="discrete"
           tableValues="0.000000 0.000000"
           id="feFuncG9" /><feFuncB
           type="discrete"
           tableValues="0.000000 0.000000"
           id="feFuncB9" /><feFuncA
           type="linear"
           slope="0.400000"
           intercept="0.000000"
           id="feFuncA9" /></feComponentTransfer><feGaussianBlur
         stdDeviation="4.583333 4.583333"
         id="feGaussianBlur9" /></filter><filter
       id="fx9"
       x="-10%"
       y="-10%"
       width="120%"
       height="120%"
       filterUnits="userSpaceOnUse"
       primitiveUnits="userSpaceOnUse"><feComponentTransfer
         color-interpolation-filters="sRGB"
         id="feComponentTransfer10"><feFuncR
           type="discrete"
           tableValues="0.000000 0.000000"
           id="feFuncR10" /><feFuncG
           type="discrete"
           tableValues="0.000000 0.000000"
           id="feFuncG10" /><feFuncB
           type="discrete"
           tableValues="0.000000 0.000000"
           id="feFuncB10" /><feFuncA
           type="linear"
           slope="0.400000"
           intercept="0.000000"
           id="feFuncA10" /></feComponentTransfer><feGaussianBlur
         stdDeviation="4.583333 4.583333"
         id="feGaussianBlur10" /></filter><filter
       id="fx10"
       x="-10%"
       y="-10%"
       width="120%"
       height="120%"
       filterUnits="userSpaceOnUse"
       primitiveUnits="userSpaceOnUse"><feComponentTransfer
         color-interpolation-filters="sRGB"
         id="feComponentTransfer11"><feFuncR
           type="discrete"
           tableValues="0.000000 0.000000"
           id="feFuncR11" /><feFuncG
           type="discrete"
           tableValues="0.000000 0.000000"
           id="feFuncG11" /><feFuncB
           type="discrete"
           tableValues="0.000000 0.000000"
           id="feFuncB11" /><feFuncA
           type="linear"
           slope="0.400000"
           intercept="0.000000"
           id="feFuncA11" /></feComponentTransfer><feGaussianBlur
         stdDeviation="4.583333 4.583333"
         id="feGaussianBlur11" /></filter><filter
       id="fx11"
       x="-10%"
       y="-10%"
       width="120%"
       height="120%"
       filterUnits="userSpaceOnUse"
       primitiveUnits="userSpaceOnUse"><feComponentTransfer
         color-interpolation-filters="sRGB"
         id="feComponentTransfer12"><feFuncR
           type="discrete"
           tableValues="0.000000 0.000000"
           id="feFuncR12" /><feFuncG
           type="discrete"
           tableValues="0.000000 0.000000"
           id="feFuncG12" /><feFuncB
           type="discrete"
           tableValues="0.000000 0.000000"
           id="feFuncB12" /><feFuncA
           type="linear"
           slope="0.400000"
           intercept="0.000000"
           id="feFuncA12" /></feComponentTransfer><feGaussianBlur
         stdDeviation="4.583333 4.583333"
         id="feGaussianBlur12" /></filter><filter
       id="fx12"
       x="-10%"
       y="-10%"
       width="120%"
       height="120%"
       filterUnits="userSpaceOnUse"
       primitiveUnits="userSpaceOnUse"><feComponentTransfer
         color-interpolation-filters="sRGB"
         id="feComponentTransfer13"><feFuncR
           type="discrete"
           tableValues="0.000000 0.000000"
           id="feFuncR13" /><feFuncG
           type="discrete"
           tableValues="0.000000 0.000000"
           id="feFuncG13" /><feFuncB
           type="discrete"
           tableValues="0.000000 0.000000"
           id="feFuncB13" /><feFuncA
           type="linear"
           slope="0.400000"
           intercept="0.000000"
           id="feFuncA13" /></feComponentTransfer><feGaussianBlur
         stdDeviation="4.583333 4.583333"
         id="feGaussianBlur13" /></filter><filter
       id="fx13"
       x="-10%"
       y="-10%"
       width="120%"
       height="120%"
       filterUnits="userSpaceOnUse"
       primitiveUnits="userSpaceOnUse"><feComponentTransfer
         color-interpolation-filters="sRGB"
         id="feComponentTransfer14"><feFuncR
           type="discrete"
           tableValues="0.000000 0.000000"
           id="feFuncR14" /><feFuncG
           type="discrete"
           tableValues="0.000000 0.000000"
           id="feFuncG14" /><feFuncB
           type="discrete"
           tableValues="0.000000 0.000000"
           id="feFuncB14" /><feFuncA
           type="linear"
           slope="0.400000"
           intercept="0.000000"
           id="feFuncA14" /></feComponentTransfer><feGaussianBlur
         stdDeviation="4.583333 4.583333"
         id="feGaussianBlur14" /></filter><filter
       id="fx14"
       x="-10%"
       y="-10%"
       width="120%"
       height="120%"
       filterUnits="userSpaceOnUse"
       primitiveUnits="userSpaceOnUse"><feComponentTransfer
         color-interpolation-filters="sRGB"
         id="feComponentTransfer15"><feFuncR
           type="discrete"
           tableValues="0.000000 0.000000"
           id="feFuncR15" /><feFuncG
           type="discrete"
           tableValues="0.000000 0.000000"
           id="feFuncG15" /><feFuncB
           type="discrete"
           tableValues="0.000000 0.000000"
           id="feFuncB15" /><feFuncA
           type="linear"
           slope="0.400000"
           intercept="0.000000"
           id="feFuncA15" /></feComponentTransfer><feGaussianBlur
         stdDeviation="4.583333 4.583333"
         id="feGaussianBlur15" /></filter><filter
       id="fx15"
       x="-10%"
       y="-10%"
       width="120%"
       height="120%"
       filterUnits="userSpaceOnUse"
       primitiveUnits="userSpaceOnUse"><feComponentTransfer
         color-interpolation-filters="sRGB"
         id="feComponentTransfer16"><feFuncR
           type="discrete"
           tableValues="0.000000 0.000000"
           id="feFuncR16" /><feFuncG
           type="discrete"
           tableValues="0.000000 0.000000"
           id="feFuncG16" /><feFuncB
           type="discrete"
           tableValues="0.000000 0.000000"
           id="feFuncB16" /><feFuncA
           type="linear"
           slope="0.400000"
           intercept="0.000000"
           id="feFuncA16" /></feComponentTransfer><feGaussianBlur
         stdDeviation="4.583333 4.583333"
         id="feGaussianBlur16" /></filter><clipPath
       id="clip16"><path
         d="M460.958 692C446.622 692 435 703.622 435 717.959L435 899.041C435 913.378 446.622 925 460.958 925L1136.04 925C1150.38 925 1162 913.378 1162 899.041L1162 717.959C1162 703.622 1150.38 692 1136.04 692ZM334 311 1265 311 1265 1251 334 1251Z"
         fill-rule="evenodd"
         clip-rule="evenodd"
         id="path16" /></clipPath><clipPath
       id="clip17"><rect
         x="2.1665"
         y="1.91663"
         width="790.667"
         height="296.667"
         id="rect16" /></clipPath><clipPath
       id="clip18"><rect
         x="0.971802"
         y="1.21277"
         width="84.1425"
         height="75.3757"
         id="rect17" /></clipPath><clipPath
       id="clip19"><rect
         x="0.738129"
         y="1.22571"
         width="87.9652"
         height="86.5322"
         id="rect18" /></clipPath><clipPath
       id="clip20"><rect
         x="1.41769"
         y="1.58691"
         width="84.1504"
         height="85.3042"
         id="rect19" /></clipPath><clipPath
       id="clip21"><rect
         x="1.20624"
         y="1.08887"
         width="79.3973"
         height="86.8048"
         id="rect20" /></clipPath><clipPath
       id="clip22"><rect
         x="0.796936"
         y="1.11133"
         width="58.6194"
         height="86.0764"
         id="rect21" /></clipPath><clipPath
       id="clip23"><rect
         x="1.08783"
         y="0.677734"
         width="72.4043"
         height="78.9647"
         id="rect22" /></clipPath><clipPath
       id="clip24"><rect
         x="1.45032"
         y="1.62073"
         width="67.2867"
         height="83.9711"
         id="rect23" /></clipPath><clipPath
       id="clip25"><rect
         x="1.15344"
         y="1.35388"
         width="62.6351"
         height="82.1538"
         id="rect24" /></clipPath><clipPath
       id="clip26"><rect
         x="1.37823"
         y="0.793945"
         width="64.1816"
         height="80.2949"
         id="rect25" /></clipPath><clipPath
       id="clip27"><rect
         x="1.02576"
         y="1.62329"
         width="71.6683"
         height="82.1454"
         id="rect26" /></clipPath><clipPath
       id="clip28"><rect
         x="0.743408"
         y="1.51477"
         width="75.0242"
         height="86.7856"
         id="rect27" /></clipPath><clipPath
       id="clip29"><rect
         x="1.14001"
         y="1.0271"
         width="83.8862"
         height="85.1798"
         id="rect28" /></clipPath><clipPath
       id="clip30"><rect
         x="1.10742"
         y="1.61981"
         width="104.514"
         height="105.897"
         id="rect29" /></clipPath><clipPath
       id="clip31"><rect
         x="0.83313"
         y="1.00641"
         width="76.9181"
         height="61.9539"
         id="rect30" /></clipPath></defs><g
     transform="translate(-334 -311)"
     id="g103"><g
       id="g102"><path
         d="M337 776.5C337 521.62 543.844 315 799 315 1054.16 315 1261 521.62 1261 776.5 1261 1031.38 1054.16 1238 799 1238 543.844 1238 337 1031.38 337 776.5Z"
         fill="#1A1A1A"
         fill-rule="evenodd"
         fill-opacity="1"
         id="path30" /><path
         d="M363.5 797C363.5 785.126 373.126 775.5 385 775.5 396.874 775.5 406.5 785.126 406.5 797 406.5 808.874 396.874 818.5 385 818.5 373.126 818.5 363.5 808.874 363.5 797Z"
         stroke="#FFFFFF"
         stroke-width="4.58333"
         stroke-linecap="butt"
         stroke-linejoin="miter"
         stroke-miterlimit="8"
         stroke-opacity="1"
         fill="#FFFFFF"
         fill-rule="evenodd"
         fill-opacity="1"
         id="path31" /><path
         d="M1190.5 797C1190.5 785.126 1200.13 775.5 1212 775.5 1223.87 775.5 1233.5 785.126 1233.5 797 1233.5 808.874 1223.87 818.5 1212 818.5 1200.13 818.5 1190.5 808.874 1190.5 797Z"
         stroke="#FFFFFF"
         stroke-width="4.58333"
         stroke-linecap="butt"
         stroke-linejoin="miter"
         stroke-miterlimit="8"
         stroke-opacity="1"
         fill="#FFFFFF"
         fill-rule="evenodd"
         fill-opacity="1"
         id="path32" /><path
         d="M777.5 1096C777.5 1084.13 787.126 1074.5 799 1074.5 810.874 1074.5 820.5 1084.13 820.5 1096 820.5 1107.87 810.874 1117.5 799 1117.5 787.126 1117.5 777.5 1107.87 777.5 1096Z"
         stroke="#FFFFFF"
         stroke-width="4.58333"
         stroke-linecap="butt"
         stroke-linejoin="miter"
         stroke-miterlimit="8"
         stroke-opacity="1"
         fill="#FFFFFF"
         fill-rule="evenodd"
         fill-opacity="1"
         id="path33" /><path
         d="M689.5 1051.5C689.5 1039.35 699.35 1029.5 711.5 1029.5 723.65 1029.5 733.5 1039.35 733.5 1051.5 733.5 1063.65 723.65 1073.5 711.5 1073.5 699.35 1073.5 689.5 1063.65 689.5 1051.5Z"
         stroke="#FFFFFF"
         stroke-width="4.58333"
         stroke-linecap="butt"
         stroke-linejoin="miter"
         stroke-miterlimit="8"
         stroke-opacity="1"
         fill="#FFFFFF"
         fill-rule="evenodd"
         fill-opacity="1"
         id="path34" /><path
         d="M861.5 1051.5C861.5 1039.35 871.126 1029.5 883 1029.5 894.874 1029.5 904.5 1039.35 904.5 1051.5 904.5 1063.65 894.874 1073.5 883 1073.5 871.126 1073.5 861.5 1063.65 861.5 1051.5Z"
         stroke="#FFFFFF"
         stroke-width="4.58333"
         stroke-linecap="butt"
         stroke-linejoin="miter"
         stroke-miterlimit="8"
         stroke-opacity="1"
         fill="#FFFFFF"
         fill-rule="evenodd"
         fill-opacity="1"
         id="path35" /><path
         d="M0 0 0.000360892 443.953"
         stroke="#FFFFFF"
         stroke-width="27.5"
         stroke-linecap="butt"
         stroke-linejoin="miter"
         stroke-miterlimit="8"
         stroke-opacity="1"
         fill="none"
         fill-rule="evenodd"
         transform="matrix(1 0 0 -1 712 1039.95)"
         id="path36" /><path
         d="M798 1095.48 798 393"
         stroke="#FFFFFF"
         stroke-width="27.5"
         stroke-linecap="butt"
         stroke-linejoin="miter"
         stroke-miterlimit="8"
         stroke-opacity="1"
         fill="none"
         fill-rule="evenodd"
         id="path37" /><path
         d="M883.62 1039.95 879 596"
         stroke="#FFFFFF"
         stroke-width="27.5"
         stroke-linecap="butt"
         stroke-linejoin="miter"
         stroke-miterlimit="8"
         stroke-opacity="1"
         fill="none"
         fill-rule="evenodd"
         id="path38" /><g
         clip-path="url(#clip16)"
         id="g45"><g
           clip-path="url(#clip17)"
           filter="url(#fx0)"
           transform="translate(401 672)"
           id="g41"><g
             id="g40"><g
               id="g39"><path
                 d="M33.9998 59.7086C33.9998 45.372 45.6219 33.7499 59.9585 33.7499L735.041 33.7499C749.378 33.7499 761 45.372 761 59.7086L761 240.791C761 255.128 749.378 266.75 735.041 266.75L59.9585 266.75C45.6219 266.75 33.9998 255.128 33.9998 240.791Z"
                 stroke="#1C99F5"
                 stroke-width="27"
                 stroke-linecap="butt"
                 stroke-linejoin="miter"
                 stroke-miterlimit="8"
                 stroke-opacity="1"
                 fill="#FFFFFF"
                 fill-rule="evenodd"
                 fill-opacity="1"
                 id="path39" /></g></g></g><g
           filter="url(#fx1)"
           transform="translate(400 687)"
           id="g44"><g
             id="g43"><g
               id="g42"><path
                 d="M99.5625-42.375C99.5625-30.7917 95.7083-20.625 88-11.875 79.2083-1.91667 67.3125 3.0625 52.3125 3.0625 37.3542 3.0625 25.4792-1.91667 16.6875-11.875 8.97917-20.625 5.125-30.7917 5.125-42.375 5.125-47.6667 6.16667-53.0937 8.25-58.6562 10.3333-64.2187 13.125-68.9792 16.625-72.9375 25.4167-82.8958 37.3125-87.875 52.3125-87.875 67.3125-87.875 79.2083-82.8958 88-72.9375 95.7083-64.1875 99.5625-54 99.5625-42.375ZM76.5625-42.375C76.5625-48.3906 74.6409-53.5918 70.7978-57.9785 65.8682-63.5762 59.7064-66.375 52.3125-66.375 47.2161-66.375 42.6001-64.9442 38.4644-62.0825 34.3286-59.2209 31.3835-55.4088 29.6289-50.6465 28.6263-47.931 28.125-45.1738 28.125-42.375 28.125-36.61 30.0465-31.4508 33.8896-26.8975 38.652-21.2575 44.793-18.4375 52.3125-18.4375 59.832-18.4375 65.9938-21.2363 70.7978-26.834 74.6409-31.304 76.5625-36.4844 76.5625-42.375ZM178.719-57.2187C178.719-49.5189 176.906-43.1507 173.281-38.1143 168.573-31.5798 160.76-28.3125 149.844-28.3125L135.969-28.3125 135.969 0 113.781 0 113.781-85.3125 149.094-85.3125C159.135-85.3125 166.76-82.3783 171.969-76.5098 176.469-71.4733 178.719-65.043 178.719-57.2187ZM155.719-56.9687C155.719-60.1452 154.789-62.6841 152.929-64.5854 151.069-66.4868 147.902-67.4375 143.43-67.4375L135.969-67.4375 135.969-46.1875 143.367-46.1875C148.174-46.1875 151.476-47.2321 153.273-49.3213 154.904-51.2021 155.719-53.7513 155.719-56.9687ZM239.115 0 190.552 0 190.552-85.3125 239.115-85.3125 239.115-66.8125 212.74-66.8125 212.74-52.25 237.677-52.25 237.677-33.75 212.74-33.75 212.74-18.5 239.115-18.5ZM338.76 0 316.573 0 275.76-52.25 275.76 0 253.573 0 253.573-85.3125 275.76-85.3125 316.573-33.125 316.573-85.3125 338.76-85.3125ZM431.51-42.6875C431.51-33.8125 428.833-25.5937 423.479-18.0312 418.125-10.4687 411.281-5.22917 402.948-2.3125 398.531-0.770833 394.031 0 389.448 0L356.698 0 356.698-85.3125 389.448-85.3125C397.448-85.3125 404.865-83.0833 411.698-78.625 418.406-74.2917 423.552-68.5 427.135-61.25 430.052-55.25 431.51-49.0625 431.51-42.6875ZM408.51-42.6875C408.51-48.5775 406.861-53.7158 403.562-58.1025 399.178-63.9092 392.643-66.8125 383.959-66.8125L378.885-66.8125 378.885-18.5 383.959-18.5C392.685-18.5 399.22-21.4033 403.562-27.21 406.861-31.6383 408.51-36.7975 408.51-42.6875ZM511.01-57.2187C511.01-49.5189 509.198-43.1507 505.573-38.1143 500.865-31.5798 493.052-28.3125 482.135-28.3125L468.26-28.3125 468.26 0 446.073 0 446.073-85.3125 481.385-85.3125C491.427-85.3125 499.052-82.3783 504.26-76.5098 508.76-71.4733 511.01-65.043 511.01-57.2187ZM488.01-56.9687C488.01-60.1452 487.08-62.6841 485.22-64.5854 483.36-66.4868 480.194-67.4375 475.721-67.4375L468.26-67.4375 468.26-46.1875 475.659-46.1875C480.465-46.1875 483.768-47.2321 485.565-49.3213 487.195-51.2021 488.01-53.7513 488.01-56.9687ZM597.656-42.6875C597.656-33.8125 594.979-25.5937 589.625-18.0312 584.271-10.4687 577.427-5.22917 569.094-2.3125 564.677-0.770833 560.177 0 555.594 0L522.844 0 522.844-85.3125 555.594-85.3125C563.594-85.3125 571.01-83.0833 577.844-78.625 584.552-74.2917 589.698-68.5 593.281-61.25 596.198-55.25 597.656-49.0625 597.656-42.6875ZM574.656-42.6875C574.656-48.5775 573.007-53.7158 569.708-58.1025 565.324-63.9092 558.789-66.8125 550.104-66.8125L545.031-66.8125 545.031-18.5 550.104-18.5C558.831-18.5 565.365-21.4033 569.708-27.21 573.007-31.6383 574.656-36.7975 574.656-42.6875Z"
                 fill="#000000"
                 fill-rule="nonzero"
                 fill-opacity="1"
                 transform="matrix(1 0 0 1 97.1312 173)"
                 id="path41" /></g></g></g></g><path
         d="M435 717.959C435 703.622 446.622 692 460.958 692L1136.04 692C1150.38 692 1162 703.622 1162 717.959L1162 899.041C1162 913.378 1150.38 925 1136.04 925L460.958 925C446.622 925 435 913.378 435 899.041Z"
         stroke="#1C99F5"
         stroke-width="27.5"
         stroke-linecap="butt"
         stroke-linejoin="miter"
         stroke-miterlimit="8"
         stroke-opacity="1"
         fill="#FFFFFF"
         fill-rule="evenodd"
         fill-opacity="1"
         id="path45" /><text
         fill="#000000"
         fill-opacity="1"
         font-family="Aharoni, Aharoni_MSFontService, sans-serif"
         font-style="normal"
         font-variant="normal"
         font-weight="700"
         font-stretch="normal"
         font-size="124.643px"
         text-anchor="start"
         direction="ltr"
         writing-mode="lr-tb"
         unicode-bidi="normal"
         text-decoration="none"
         id="text45"
         x="493.35464"
         y="814.26764"
         style="text-decoration:none;text-decoration-line:none;stroke-width:0.973779"
         transform="scale(0.95097994,1.0515469)">OPENDPD</text><rect
         x="804.96533"
         y="691.41974"
         width="21.154486"
         height="99"
         fill="#1c99f5"
         fill-opacity="1"
         id="rect45"
         style="stroke-width:0.902015" /><rect
         x="946.22223"
         y="838.85492"
         width="22.373556"
         height="99"
         fill="#1c99f5"
         fill-opacity="1"
         id="rect46"
         style="stroke-width:0.927641" /><path
         d="M776.5 521C776.5 509.126 786.35 499.5 798.5 499.5 810.65 499.5 820.5 509.126 820.5 521 820.5 532.874 810.65 542.5 798.5 542.5 786.35 542.5 776.5 532.874 776.5 521Z"
         stroke="#FFFFFF"
         stroke-width="4.58333"
         stroke-linecap="butt"
         stroke-linejoin="miter"
         stroke-miterlimit="8"
         stroke-opacity="1"
         fill="#FFFFFF"
         fill-rule="evenodd"
         fill-opacity="1"
         id="path46" /><path
         d="M776.5 392.5C776.5 380.35 786.35 370.5 798.5 370.5 810.65 370.5 820.5 380.35 820.5 392.5 820.5 404.65 810.65 414.5 798.5 414.5 786.35 414.5 776.5 404.65 776.5 392.5Z"
         stroke="#FFFFFF"
         stroke-width="4.58333"
         stroke-linecap="butt"
         stroke-linejoin="miter"
         stroke-miterlimit="8"
         stroke-opacity="1"
         fill="#FFFFFF"
         fill-rule="evenodd"
         fill-opacity="1"
         id="path47" /><path
         d="M669 559C692.748 559 712 581.386 712 609"
         stroke="#FFFFFF"
         stroke-width="27.5"
         stroke-linecap="butt"
         stroke-linejoin="miter"
         stroke-miterlimit="8"
         stroke-opacity="1"
         fill="none"
         fill-rule="evenodd"
         id="path48" /><path
         d="M42.9999 0C66.7482-6.36567e-15 85.9999 22.3858 85.9999 50"
         stroke="#FFFFFF"
         stroke-width="27.5"
         stroke-linecap="butt"
         stroke-linejoin="miter"
         stroke-miterlimit="8"
         stroke-opacity="1"
         fill="none"
         fill-rule="evenodd"
         transform="matrix(-1 0 0 1 964 556)"
         id="path49" /><path
         d="M0 0 166.83 0.000360892"
         stroke="#FFFFFF"
         stroke-width="27.5"
         stroke-linecap="butt"
         stroke-linejoin="miter"
         stroke-miterlimit="8"
         stroke-opacity="1"
         fill="none"
         fill-rule="evenodd"
         transform="matrix(-1 0 0 1 673.83 559)"
         id="path50" /><path
         d="M0 0 166.83 0.000360892"
         stroke="#FFFFFF"
         stroke-width="27.5"
         stroke-linecap="butt"
         stroke-linejoin="miter"
         stroke-miterlimit="8"
         stroke-opacity="1"
         fill="none"
         fill-rule="evenodd"
         transform="matrix(-1 0 0 1 1082.83 559)"
         id="path51" /><path
         d="M0 0 0.000360892 140.384"
         stroke="#FFFFFF"
         stroke-width="27.5"
         stroke-linecap="butt"
         stroke-linejoin="miter"
         stroke-miterlimit="8"
         stroke-opacity="1"
         fill="none"
         fill-rule="evenodd"
         transform="matrix(1 0 0 -1 626 629.384)"
         id="path52" /><path
         d="M0 0 0.000360892 75.1104"
         stroke="#FFFFFF"
         stroke-width="27.5"
         stroke-linecap="butt"
         stroke-linejoin="miter"
         stroke-miterlimit="8"
         stroke-opacity="1"
         fill="none"
         fill-rule="evenodd"
         transform="matrix(1 0 0 -1 581 596.11)"
         id="path53" /><path
         d="M0 0 0.000360892 140.384"
         stroke="#FFFFFF"
         stroke-width="27.5"
         stroke-linecap="butt"
         stroke-linejoin="miter"
         stroke-miterlimit="8"
         stroke-opacity="1"
         fill="none"
         fill-rule="evenodd"
         transform="matrix(1 0 0 -1 960 629.384)"
         id="path54" /><path
         d="M0 0 0.000360892 75.1104"
         stroke="#FFFFFF"
         stroke-width="27.5"
         stroke-linecap="butt"
         stroke-linejoin="miter"
         stroke-miterlimit="8"
         stroke-opacity="1"
         fill="none"
         fill-rule="evenodd"
         transform="matrix(1 0 0 -1 1005 596.11)"
         id="path55" /><path
         d="M1055.5 559C1055.5 547.126 1065.13 537.5 1077 537.5 1088.87 537.5 1098.5 547.126 1098.5 559 1098.5 570.874 1088.87 580.5 1077 580.5 1065.13 580.5 1055.5 570.874 1055.5 559Z"
         stroke="#FFFFFF"
         stroke-width="4.58333"
         stroke-linecap="butt"
         stroke-linejoin="miter"
         stroke-miterlimit="8"
         stroke-opacity="1"
         fill="#FFFFFF"
         fill-rule="evenodd"
         fill-opacity="1"
         id="path56" /><path
         d="M486.5 559C486.5 547.126 496.126 537.5 508 537.5 519.874 537.5 529.5 547.126 529.5 559 529.5 570.874 519.874 580.5 508 580.5 496.126 580.5 486.5 570.874 486.5 559Z"
         stroke="#FFFFFF"
         stroke-width="4.58333"
         stroke-linecap="butt"
         stroke-linejoin="miter"
         stroke-miterlimit="8"
         stroke-opacity="1"
         fill="#FFFFFF"
         fill-rule="evenodd"
         fill-opacity="1"
         id="path57" /><g
         clip-path="url(#clip18)"
         filter="url(#fx2)"
         transform="translate(440 995)"
         id="g60"><g
           id="g59"><g
             id="g58"><path
               d="M51.7043 15.5228 71.1818 46.9352C71.3099 47.1419 71.3642 47.3705 71.3447 47.621 71.3252 47.8715 71.2075 48.1432 70.9917 48.436 70.7759 48.7288 70.4446 49.0533 69.998 49.4098 69.5514 49.7661 68.9837 50.1579 68.2948 50.5851 67.6289 50.998 67.0428 51.3217 66.5365 51.5561 66.0301 51.7906 65.5979 51.9394 65.2397 52.0026 64.8814 52.0657 64.5801 52.0539 64.3355 51.9671 64.0909 51.8803 63.9046 51.7336 63.7765 51.5269L56.8568 40.3673 20.9323 62.6426C20.7027 62.7849 20.4498 62.8385 20.1735 62.8031 19.8973 62.7678 19.595 62.6135 19.2666 62.3402 18.9382 62.067 18.5581 61.6589 18.1261 61.1161 17.6942 60.5733 17.2077 59.8656 16.6666 58.993 16.1256 58.1205 15.708 57.3701 15.4138 56.7418 15.1196 56.1136 14.9231 55.5916 14.8244 55.176 14.7256 54.7604 14.7218 54.421 14.813 54.1578 14.9041 53.8947 15.0645 53.6919 15.2941 53.5495L51.2186 31.2742 44.2989 20.1146C44.1566 19.885 44.1044 19.6471 44.1425 19.4009 44.1806 19.1547 44.3076 18.8853 44.5234 18.5925 44.7393 18.2997 45.0648 17.9787 45.4999 17.6294 45.935 17.2801 46.4856 16.899 47.1515 16.4861 47.8403 16.059 48.4437 15.7246 48.9615 15.483 49.4793 15.2414 49.9173 15.0891 50.2755 15.0259 50.6337 14.9627 50.9258 14.9724 51.1518 15.0548 51.3777 15.1372 51.5619 15.2932 51.7043 15.5228Z"
               fill="#FFFFFF"
               fill-rule="evenodd"
               fill-opacity="1"
               id="path58" /></g></g></g><path
         d="M486.843 1005.66 506.32 1037.07C506.449 1037.28 506.503 1037.51 506.483 1037.76 506.464 1038.01 506.346 1038.28 506.13 1038.57 505.915 1038.87 505.583 1039.19 505.137 1039.55 504.69 1039.9 504.122 1040.3 503.433 1040.72 502.768 1041.14 502.181 1041.46 501.675 1041.69 501.169 1041.93 500.737 1042.08 500.378 1042.14 500.02 1042.2 499.719 1042.19 499.474 1042.11 499.23 1042.02 499.043 1041.87 498.915 1041.67L491.995 1030.51 456.071 1052.78C455.841 1052.92 455.588 1052.98 455.312 1052.94 455.036 1052.91 454.734 1052.75 454.405 1052.48 454.077 1052.21 453.697 1051.8 453.265 1051.25 452.833 1050.71 452.346 1050 451.805 1049.13 451.264 1048.26 450.847 1047.51 450.552 1046.88 450.258 1046.25 450.062 1045.73 449.963 1045.31 449.864 1044.9 449.86 1044.56 449.952 1044.3 450.043 1044.03 450.203 1043.83 450.433 1043.69L486.357 1021.41 479.438 1010.25C479.295 1010.02 479.243 1009.79 479.281 1009.54 479.319 1009.29 479.446 1009.02 479.662 1008.73 479.878 1008.44 480.203 1008.12 480.639 1007.77 481.074 1007.42 481.624 1007.04 482.29 1006.62 482.979 1006.2 483.582 1005.86 484.1 1005.62 484.618 1005.38 485.056 1005.23 485.414 1005.16 485.772 1005.1 486.064 1005.11 486.29 1005.19 486.516 1005.28 486.701 1005.43 486.843 1005.66Z"
         fill="#FFFFFF"
         fill-rule="evenodd"
         fill-opacity="1"
         id="path60" /><text
         fill="#000000"
         fill-opacity="0"
         font-family="Arial,Arial_MSFontService,sans-serif"
         font-size="47.8289"
         direction="ltr"
         writing-mode="lr-tb"
         x="449.886"
         y="1046.97"
         id="text60">T</text><g
         clip-path="url(#clip19)"
         filter="url(#fx3)"
         transform="translate(464 1029)"
         id="g63"><g
           id="g62"><g
             id="g61"><path
               d="M51.6414 18.2698C52.3029 19.055 52.8202 19.732 53.1934 20.3008 53.5665 20.8697 53.832 21.3526 53.9898 21.7495 54.1476 22.1465 54.2004 22.4818 54.1482 22.7554 54.096 23.029 53.9666 23.2528 53.76 23.4269L30.0791 43.3747C28.488 44.7151 27.2741 46.0732 26.4373 47.4493 25.6005 48.8254 25.1088 50.2022 24.9622 51.5799 24.8155 52.9574 24.9819 54.3187 25.4612 55.6636 25.9406 57.0085 26.7111 58.3112 27.7729 59.5717 28.8521 60.8528 30.0145 61.8343 31.26 62.5161 32.5056 63.1979 33.8014 63.5725 35.1474 63.6397 36.4935 63.7069 37.8803 63.466 39.3078 62.9171 40.7353 62.3681 42.1517 61.5018 43.5568 60.3181L67.7026 39.9786C67.9093 39.8046 68.1475 39.7099 68.4172 39.6946 68.687 39.6794 69.004 39.7832 69.3685 40.0061 69.7329 40.2291 70.168 40.5779 70.6739 41.0526 71.1797 41.5273 71.7634 42.1573 72.4248 42.9425 73.0863 43.7277 73.5992 44.3996 73.9637 44.958 74.3282 45.5165 74.5893 45.9943 74.7471 46.3913 74.9049 46.7882 74.9533 47.1184 74.8924 47.3816 74.8316 47.6449 74.6978 47.8635 74.4912 48.0376L50.4384 68.2987C47.9794 70.3701 45.474 71.8623 42.9224 72.7753 40.3708 73.6883 37.8316 74.0079 35.3048 73.7342 32.778 73.4605 30.2929 72.5863 27.8497 71.1117 25.4065 69.6372 23.0535 67.5567 20.7906 64.8705 18.667 62.3495 17.0761 59.8213 16.0179 57.286 14.9598 54.7507 14.4881 52.2512 14.6031 49.7875 14.718 47.3238 15.4222 44.9201 16.7157 42.5765 18.0091 40.2328 19.937 37.9818 22.4994 35.8233L46.8931 15.2749C47.0998 15.1009 47.3379 15.0062 47.6077 14.9909 47.8774 14.9756 48.1989 15.0847 48.572 15.3179 48.9451 15.5512 49.3803 15.9 49.8774 16.3644 50.3746 16.8287 50.9626 17.4639 51.6414 18.2698Z"
               fill="#FFFFFF"
               fill-rule="evenodd"
               fill-opacity="1"
               id="path61" /></g></g></g><path
         d="M510.78 1042.41C511.442 1043.19 511.959 1043.87 512.332 1044.44 512.705 1045.01 512.971 1045.49 513.128 1045.89 513.286 1046.29 513.339 1046.62 513.287 1046.89 513.235 1047.17 513.105 1047.39 512.899 1047.57L489.218 1067.51C487.627 1068.85 486.413 1070.21 485.576 1071.59 484.739 1072.96 484.247 1074.34 484.101 1075.72 483.954 1077.1 484.121 1078.46 484.6 1079.8 485.079 1081.15 485.85 1082.45 486.912 1083.71 487.991 1084.99 489.153 1085.97 490.399 1086.65 491.644 1087.34 492.94 1087.71 494.286 1087.78 495.632 1087.85 497.019 1087.6 498.446 1087.06 499.874 1086.51 501.29 1085.64 502.695 1084.46L526.841 1064.12C527.048 1063.94 527.286 1063.85 527.556 1063.83 527.826 1063.82 528.143 1063.92 528.507 1064.14 528.872 1064.37 529.307 1064.72 529.812 1065.19 530.318 1065.67 530.902 1066.3 531.563 1067.08 532.225 1067.87 532.738 1068.54 533.102 1069.1 533.467 1069.66 533.728 1070.13 533.886 1070.53 534.044 1070.93 534.092 1071.26 534.031 1071.52 533.97 1071.78 533.836 1072 533.63 1072.18L509.577 1092.44C507.118 1094.51 504.613 1096 502.061 1096.91 499.509 1097.83 496.97 1098.15 494.443 1097.87 491.917 1097.6 489.432 1096.72 486.988 1095.25 484.545 1093.78 482.192 1091.7 479.929 1089.01 477.806 1086.49 476.215 1083.96 475.157 1081.42 474.098 1078.89 473.627 1076.39 473.742 1073.93 473.857 1071.46 474.561 1069.06 475.854 1066.72 477.148 1064.37 479.076 1062.12 481.638 1059.96L506.032 1039.41C506.238 1039.24 506.477 1039.14 506.746 1039.13 507.016 1039.11 507.338 1039.22 507.711 1039.46 508.084 1039.69 508.519 1040.04 509.016 1040.5 509.513 1040.97 510.101 1041.6 510.78 1042.41Z"
         fill="#FFFFFF"
         fill-rule="evenodd"
         fill-opacity="1"
         id="path63" /><text
         fill="#000000"
         fill-opacity="0"
         font-family="Arial,Arial_MSFontService,sans-serif"
         font-size="58.8394"
         direction="ltr"
         writing-mode="lr-tb"
         x="473.725"
         y="1090.61"
         id="text63">U</text><g
         clip-path="url(#clip20)"
         filter="url(#fx4)"
         transform="translate(509 1077)"
         id="g66"><g
           id="g65"><g
             id="g64"><path
               d="M49.7302 27.3176 27.6716 55.3415 32.0344 58.7756C34.3272 60.5804 36.4931 61.8039 38.5321 62.4461 40.571 63.0883 42.5881 63.2232 44.5831 62.8509 46.5782 62.4786 48.5377 61.6055 50.4616 60.2315 52.3854 58.8576 54.2832 56.9818 56.1548 54.604 57.6923 52.6508 58.8928 50.656 59.7566 48.6195 60.6203 46.583 61.0326 44.5522 60.9934 42.5271 60.9542 40.502 60.4153 38.5219 59.3768 36.5869 58.3382 34.652 56.5345 32.6735 53.9657 30.6515ZM49.0344 16.1452 59.6071 24.4673C63.2799 27.3583 66.057 30.2406 67.9385 33.1141 69.8199 35.9876 70.9721 38.9576 71.3951 42.0241 71.8181 45.0905 71.5084 48.2251 70.4661 51.4276 69.4238 54.6301 67.6159 57.8661 65.0424 61.1355 62.0678 64.9145 59.0299 67.7583 55.9288 69.6668 52.8276 71.5754 49.6851 72.6519 46.5011 72.8965 43.3172 73.1411 40.0903 72.6211 36.8205 71.3368 33.5507 70.0523 30.09 67.973 26.4384 65.0987L16.5981 57.3531C15.8975 56.8016 15.4713 56.1309 15.3195 55.3408 15.1677 54.5509 15.4594 53.6888 16.1947 52.7547L44.4699 16.8331C45.2052 15.899 45.9746 15.4129 46.7782 15.375 47.5817 15.3369 48.3338 15.5937 49.0344 16.1452Z"
               fill="#FFFFFF"
               fill-rule="evenodd"
               fill-opacity="1"
               id="path64" /></g></g></g><path
         d="M553.869 1099.46 531.81 1127.48 536.173 1130.91C538.466 1132.72 540.632 1133.94 542.671 1134.58 544.71 1135.23 546.727 1135.36 548.722 1134.99 550.717 1134.62 552.676 1133.74 554.6 1132.37 556.524 1131 558.422 1129.12 560.293 1126.74 561.831 1124.79 563.031 1122.79 563.895 1120.76 564.759 1118.72 565.171 1116.69 565.132 1114.67 565.093 1112.64 564.554 1110.66 563.515 1108.73 562.477 1106.79 560.673 1104.81 558.104 1102.79ZM553.173 1088.28 563.746 1096.61C567.419 1099.5 570.196 1102.38 572.077 1105.25 573.959 1108.13 575.111 1111.1 575.534 1114.16 575.957 1117.23 575.647 1120.36 574.605 1123.57 573.562 1126.77 571.755 1130 569.181 1133.27 566.206 1137.05 563.169 1139.9 560.067 1141.81 556.966 1143.71 553.824 1144.79 550.64 1145.04 547.456 1145.28 544.229 1144.76 540.959 1143.48 537.689 1142.19 534.229 1140.11 530.577 1137.24L520.737 1129.49C520.036 1128.94 519.61 1128.27 519.458 1127.48 519.306 1126.69 519.598 1125.83 520.333 1124.89L548.609 1088.97C549.344 1088.04 550.113 1087.55 550.917 1087.51 551.72 1087.48 552.472 1087.73 553.173 1088.28Z"
         fill="#FFFFFF"
         fill-rule="evenodd"
         fill-opacity="1"
         id="path66" /><text
         fill="#000000"
         fill-opacity="0"
         font-family="Arial,Arial_MSFontService,sans-serif"
         font-size="57.584"
         direction="ltr"
         writing-mode="lr-tb"
         x="519.419"
         y="1137.9"
         id="text66">D</text><g
         clip-path="url(#clip21)"
         filter="url(#fx5)"
         transform="translate(552 1106)"
         id="g69"><g
           id="g68"><g
             id="g67"><path
               d="M43.911 15.4648 66.2965 29.0412C66.5044 29.1673 66.6542 29.3371 66.7458 29.5507 66.8375 29.7642 66.8535 30.0505 66.7939 30.4093 66.7343 30.7682 66.5967 31.1903 66.3813 31.6758 66.1658 32.1613 65.8479 32.7506 65.4276 33.4436 65.0353 34.0905 64.6737 34.6216 64.3427 35.0371 64.0117 35.4525 63.7044 35.7638 63.4208 35.971 63.1372 36.1782 62.8759 36.2962 62.6372 36.3252 62.3984 36.3542 62.1751 36.3057 61.9672 36.1796L45.9578 26.4701 39.3167 37.4203 52.8658 45.6376C53.0737 45.7637 53.2257 45.9428 53.3219 46.175 53.4181 46.4071 53.4434 46.691 53.3978 47.0268 53.3522 47.3625 53.2217 47.7731 53.0062 48.2586 52.7908 48.7441 52.4869 49.3103 52.0946 49.9571 51.6883 50.627 51.3231 51.164 50.9992 51.5679 50.6752 51.9718 50.3749 52.2716 50.0983 52.4672 49.8217 52.6628 49.5617 52.7658 49.3184 52.7762 49.075 52.7866 48.8494 52.7288 48.6415 52.6027L35.0924 44.3855 27.4216 57.0336 43.5696 66.827C43.7775 66.9531 43.9296 67.1323 44.0258 67.3644 44.122 67.5966 44.1438 67.8863 44.0911 68.2335 44.0385 68.5808 43.9045 68.9972 43.689 69.4827 43.4736 69.9682 43.1627 70.5459 42.7564 71.2159 42.3501 71.8858 41.9814 72.4286 41.6505 72.844 41.3195 73.2594 41.0122 73.5708 40.7286 73.7779 40.4449 73.9851 40.178 74.0996 39.9276 74.1216 39.6773 74.1436 39.4482 74.0916 39.2403 73.9655L16.7162 60.305C15.9538 59.8427 15.4494 59.2286 15.2028 58.4629 14.9562 57.6972 15.1412 56.8061 15.7577 55.7896L39.4638 16.7017C40.0803 15.6852 40.785 15.1093 41.578 14.9741 42.371 14.8389 43.1487 15.0024 43.911 15.4648Z"
               fill="#FFFFFF"
               fill-rule="evenodd"
               fill-opacity="1"
               id="path67" /></g></g></g><path
         d="M591.05 1116.6 613.435 1130.18C613.643 1130.31 613.793 1130.48 613.884 1130.69 613.976 1130.9 613.992 1131.19 613.932 1131.55 613.873 1131.91 613.735 1132.33 613.52 1132.81 613.304 1133.3 612.987 1133.89 612.566 1134.58 612.174 1135.23 611.812 1135.76 611.481 1136.18 611.15 1136.59 610.843 1136.9 610.559 1137.11 610.276 1137.32 610.015 1137.43 609.776 1137.46 609.537 1137.49 609.314 1137.44 609.106 1137.32L593.096 1127.61 586.455 1138.56 600.004 1146.78C600.212 1146.9 600.364 1147.08 600.461 1147.31 600.557 1147.55 600.582 1147.83 600.536 1148.17 600.491 1148.5 600.36 1148.91 600.145 1149.4 599.929 1149.88 599.626 1150.45 599.233 1151.1 598.827 1151.77 598.462 1152.3 598.138 1152.71 597.814 1153.11 597.514 1153.41 597.237 1153.61 596.96 1153.8 596.7 1153.9 596.457 1153.91 596.214 1153.93 595.988 1153.87 595.78 1153.74L582.231 1145.52 574.56 1158.17 590.708 1167.97C590.916 1168.09 591.068 1168.27 591.164 1168.5 591.261 1168.74 591.282 1169.02 591.23 1169.37 591.177 1169.72 591.043 1170.14 590.828 1170.62 590.612 1171.11 590.301 1171.68 589.895 1172.35 589.489 1173.02 589.12 1173.57 588.789 1173.98 588.458 1174.4 588.151 1174.71 587.867 1174.92 587.584 1175.12 587.317 1175.24 587.066 1175.26 586.816 1175.28 586.587 1175.23 586.379 1175.1L563.855 1161.44C563.092 1160.98 562.588 1160.37 562.341 1159.6 562.095 1158.84 562.28 1157.94 562.896 1156.93L586.602 1117.84C587.219 1116.82 587.924 1116.25 588.717 1116.11 589.51 1115.98 590.287 1116.14 591.05 1116.6Z"
         fill="#FFFFFF"
         fill-rule="evenodd"
         fill-opacity="1"
         id="path69" /><text
         fill="#000000"
         fill-opacity="0"
         font-family="Arial,Arial_MSFontService,sans-serif"
         font-size="59.1984"
         direction="ltr"
         writing-mode="lr-tb"
         x="562.236"
         y="1167.87"
         id="text69">E</text><g
         clip-path="url(#clip22)"
         filter="url(#fx6)"
         transform="translate(588 1124)"
         id="g72"><g
           id="g71"><g
             id="g70"><path
               d="M41.4464 16.3491C42.3951 16.8077 43.1559 17.2205 43.7287 17.5874 44.3016 17.9544 44.741 18.2869 45.0471 18.5849 45.3532 18.8829 45.5383 19.1674 45.6023 19.4384 45.6664 19.7095 45.6396 19.9666 45.522 20.2099L27.1603 58.1935 42.0108 65.3724C42.254 65.49 42.4345 65.6598 42.5523 65.8817 42.67 66.1037 42.7163 66.3961 42.6909 66.759 42.6655 67.1218 42.5627 67.5673 42.3825 68.0954 42.2022 68.6234 41.9357 69.2523 41.583 69.9821 41.2302 70.7119 40.9029 71.3114 40.601 71.7807 40.2991 72.2499 40.008 72.6193 39.7276 72.8889 39.4472 73.1585 39.1806 73.3222 38.9276 73.38 38.6746 73.4377 38.4265 73.4078 38.1832 73.2902L16.546 62.8306C15.7433 62.4425 15.1829 61.8791 14.8649 61.1402 14.5469 60.4012 14.6466 59.4966 15.164 58.4263L35.8893 15.5533C36.0068 15.3101 36.1917 15.1294 36.4439 15.0112 36.6961 14.893 37.034 14.8614 37.4577 14.9161 37.8814 14.9709 38.421 15.1117 39.0766 15.3385 39.7321 15.5654 40.5221 15.9023 41.4464 16.3491Z"
               fill="#FFFFFF"
               fill-rule="evenodd"
               fill-opacity="1"
               id="path70" /></g></g></g><path
         d="M624.585 1135.49C625.534 1135.95 626.295 1136.36 626.867 1136.73 627.44 1137.09 627.88 1137.43 628.186 1137.72 628.492 1138.02 628.677 1138.31 628.741 1138.58 628.805 1138.85 628.778 1139.11 628.661 1139.35L610.299 1177.33 625.149 1184.51C625.393 1184.63 625.573 1184.8 625.691 1185.02 625.809 1185.24 625.855 1185.53 625.83 1185.9 625.804 1186.26 625.701 1186.71 625.521 1187.23 625.341 1187.76 625.074 1188.39 624.722 1189.12 624.369 1189.85 624.042 1190.45 623.74 1190.92 623.438 1191.39 623.147 1191.76 622.866 1192.03 622.586 1192.3 622.319 1192.46 622.066 1192.52 621.813 1192.58 621.565 1192.55 621.322 1192.43L599.685 1181.97C598.882 1181.58 598.322 1181.02 598.004 1180.28 597.686 1179.54 597.785 1178.64 598.303 1177.56L619.028 1134.69C619.146 1134.45 619.33 1134.27 619.583 1134.15 619.835 1134.03 620.173 1134 620.596 1134.05 621.02 1134.11 621.56 1134.25 622.215 1134.48 622.871 1134.7 623.661 1135.04 624.585 1135.49Z"
         fill="#FFFFFF"
         fill-rule="evenodd"
         fill-opacity="1"
         id="path72" /><text
         fill="#000000"
         fill-opacity="0"
         font-family="Arial,Arial_MSFontService,sans-serif"
         font-size="58.5184"
         direction="ltr"
         writing-mode="lr-tb"
         x="597.822"
         y="1185.23"
         id="text72">L</text><g
         clip-path="url(#clip23)"
         filter="url(#fx7)"
         transform="translate(620 1138)"
         id="g75"><g
           id="g74"><g
             id="g73"><path
               d="M35.8879 14.761 58.9782 23.4787C59.2057 23.5646 59.3817 23.7104 59.5061 23.9163 59.6306 24.1221 59.7027 24.4092 59.7224 24.7777 59.7421 25.1461 59.6834 25.6077 59.5462 26.1623 59.409 26.717 59.1972 27.3735 58.9109 28.1318 58.6246 28.8901 58.3521 29.5164 58.0932 30.0107 57.8344 30.505 57.5782 30.8776 57.3247 31.1284 57.0712 31.3793 56.8273 31.5471 56.5931 31.632 56.3589 31.7168 56.1281 31.7163 55.9006 31.6305L39.8625 25.5753 34.881 38.7698 49.9333 44.4527C50.1608 44.5386 50.3391 44.6781 50.4683 44.8713 50.5975 45.0645 50.6744 45.339 50.6989 45.6948 50.7234 46.0506 50.6718 46.4932 50.5442 47.0226 50.4165 47.552 50.2095 48.1959 49.9232 48.9542 49.6369 49.7125 49.3667 50.3324 49.1127 50.8141 48.8586 51.2958 48.6001 51.6747 48.337 51.9508 48.0739 52.2269 47.8277 52.4011 47.5982 52.4733 47.3688 52.5455 47.1403 52.5387 46.9129 52.4528L31.8606 46.7699 24.9609 65.0449C24.8559 65.323 24.6894 65.5345 24.4614 65.6795 24.2334 65.8244 23.8972 65.8924 23.453 65.8835 23.0087 65.8747 22.4563 65.7888 21.7957 65.6261 21.1352 65.4633 20.312 65.1958 19.3262 64.8236 18.3657 64.461 17.5775 64.1201 16.9616 63.8009 16.3456 63.4818 15.8743 63.1811 15.5477 62.8989 15.221 62.6167 15.0137 62.3435 14.9258 62.0793 14.8378 61.815 14.8463 61.5439 14.9513 61.2658L31.7424 16.7915C32.1623 15.6793 32.7497 14.9841 33.5045 14.7059 34.2593 14.4278 35.0538 14.4461 35.8879 14.761Z"
               fill="#FFFFFF"
               fill-rule="evenodd"
               fill-opacity="1"
               id="path73" /></g></g></g><path
         d="M651.027 1147.9 674.117 1156.62C674.344 1156.7 674.52 1156.85 674.645 1157.05 674.769 1157.26 674.841 1157.55 674.861 1157.92 674.881 1158.28 674.822 1158.75 674.685 1159.3 674.548 1159.86 674.336 1160.51 674.05 1161.27 673.763 1162.03 673.491 1162.66 673.232 1163.15 672.973 1163.64 672.717 1164.02 672.463 1164.27 672.21 1164.52 671.966 1164.69 671.732 1164.77 671.498 1164.86 671.267 1164.85 671.039 1164.77L655.001 1158.71 650.02 1171.91 665.072 1177.59C665.299 1177.68 665.478 1177.82 665.607 1178.01 665.736 1178.2 665.813 1178.48 665.838 1178.83 665.862 1179.19 665.81 1179.63 665.683 1180.16 665.555 1180.69 665.348 1181.33 665.062 1182.09 664.776 1182.85 664.505 1183.47 664.251 1183.95 663.997 1184.43 663.739 1184.81 663.476 1185.09 663.213 1185.37 662.966 1185.54 662.737 1185.61 662.507 1185.68 662.279 1185.68 662.052 1185.59L646.999 1179.91 640.099 1198.18C639.995 1198.46 639.828 1198.67 639.6 1198.82 639.372 1198.96 639.036 1199.03 638.592 1199.02 638.147 1199.01 637.595 1198.93 636.934 1198.76 636.274 1198.6 635.451 1198.33 634.465 1197.96 633.504 1197.6 632.716 1197.26 632.1 1196.94 631.484 1196.62 631.013 1196.32 630.686 1196.04 630.36 1195.76 630.152 1195.48 630.064 1195.22 629.976 1194.95 629.985 1194.68 630.09 1194.4L646.881 1149.93C647.301 1148.82 647.888 1148.12 648.643 1147.84 649.398 1147.57 650.192 1147.58 651.027 1147.9Z"
         fill="#FFFFFF"
         fill-rule="evenodd"
         fill-opacity="1"
         id="path75" /><text
         fill="#000000"
         fill-opacity="0"
         font-family="Arial,Arial_MSFontService,sans-serif"
         font-size="51.374"
         direction="ltr"
         writing-mode="lr-tb"
         x="630.004"
         y="1192.6"
         id="text75">F</text><g
         clip-path="url(#clip24)"
         filter="url(#fx8)"
         transform="translate(663 1147)"
         id="g78"><g
           id="g77"><g
             id="g76"><path
               d="M18.4119 15.442 54.0635 25.1928C54.298 25.257 54.4934 25.3875 54.6497 25.5843 54.8059 25.7811 54.9046 26.0601 54.9459 26.4215 54.9871 26.783 54.9654 27.2462 54.8809 27.8113 54.7963 28.3764 54.6472 29.0499 54.4333 29.8317 54.2266 30.5875 54.0176 31.2236 53.8064 31.74 53.5951 32.2564 53.3797 32.6598 53.1604 32.9499 52.9409 33.24 52.7121 33.4365 52.4739 33.5394 52.2357 33.6423 51.9993 33.6617 51.7648 33.5976L39.0991 30.1334 27.9476 70.906C27.8763 71.1665 27.7275 71.378 27.5011 71.5401 27.2746 71.7022 26.9481 71.795 26.5216 71.8184 26.095 71.8418 25.5388 71.8017 24.8529 71.6981 24.1669 71.5946 23.3288 71.4073 22.3385 71.1365 21.3481 70.8656 20.5314 70.6002 19.8882 70.3403 19.245 70.0803 18.7458 69.8317 18.3905 69.5945 18.0353 69.3573 17.8014 69.1113 17.6891 68.8565 17.5767 68.6016 17.5561 68.344 17.6274 68.0833L28.7789 27.3108 16.1132 23.8467C15.8526 23.7754 15.6525 23.6366 15.5128 23.4304 15.3732 23.2241 15.2827 22.9403 15.2415 22.5789 15.2003 22.2175 15.2202 21.7608 15.3012 21.2086 15.3821 20.6566 15.526 20.0026 15.7327 19.2469 15.9465 18.4651 16.1608 17.8094 16.3757 17.2799 16.5905 16.7505 16.8076 16.3407 17.027 16.0506 17.2464 15.7605 17.467 15.5687 17.6886 15.4752 17.9102 15.3818 18.1513 15.3707 18.4119 15.442Z"
               fill="#FFFFFF"
               fill-rule="evenodd"
               fill-opacity="1"
               id="path76" /></g></g></g><path
         d="M676.551 1157.58 712.202 1167.33C712.437 1167.4 712.632 1167.53 712.788 1167.72 712.945 1167.92 713.043 1168.2 713.085 1168.56 713.126 1168.92 713.104 1169.38 713.02 1169.95 712.935 1170.52 712.786 1171.19 712.572 1171.97 712.365 1172.73 712.156 1173.36 711.945 1173.88 711.734 1174.4 711.518 1174.8 711.299 1175.09 711.08 1175.38 710.851 1175.58 710.613 1175.68 710.374 1175.78 710.138 1175.8 709.903 1175.74L697.238 1172.27 686.086 1213.04C686.015 1213.31 685.866 1213.52 685.64 1213.68 685.413 1213.84 685.087 1213.93 684.66 1213.96 684.234 1213.98 683.677 1213.94 682.992 1213.84 682.306 1213.73 681.467 1213.55 680.477 1213.28 679.487 1213 678.67 1212.74 678.027 1212.48 677.384 1212.22 676.884 1211.97 676.529 1211.73 676.174 1211.5 675.94 1211.25 675.828 1211 675.715 1210.74 675.695 1210.48 675.766 1210.22L686.918 1169.45 674.252 1165.99C673.991 1165.91 673.791 1165.78 673.651 1165.57 673.512 1165.36 673.421 1165.08 673.38 1164.72 673.339 1164.36 673.359 1163.9 673.44 1163.35 673.521 1162.8 673.665 1162.14 673.871 1161.39 674.085 1160.6 674.299 1159.95 674.514 1159.42 674.729 1158.89 674.946 1158.48 675.166 1158.19 675.385 1157.9 675.606 1157.71 675.827 1157.61 676.049 1157.52 676.29 1157.51 676.551 1157.58Z"
         fill="#FFFFFF"
         fill-rule="evenodd"
         fill-opacity="1"
         id="path78" /><text
         fill="#000000"
         fill-opacity="0"
         font-family="Arial,Arial_MSFontService,sans-serif"
         font-size="56.4292"
         direction="ltr"
         writing-mode="lr-tb"
         x="673.359"
         y="1206.91"
         id="text78">T</text><g
         clip-path="url(#clip25)"
         filter="url(#fx9)"
         transform="translate(809 1163)"
         id="g81"><g
           id="g80"><g
             id="g79"><path
               d="M17.8597 17.4422 43.9376 15.1254C44.1798 15.1038 44.4011 15.1521 44.6014 15.2699 44.8018 15.3877 44.9842 15.6088 45.1486 15.9333 45.3131 16.2577 45.4522 16.6793 45.5662 17.1981 45.6801 17.7169 45.7729 18.38 45.8446 19.1874 45.9115 19.9409 45.9347 20.5831 45.914 21.1139 45.8934 21.6446 45.8301 22.0775 45.7242 22.4124 45.6184 22.7473 45.4778 22.9971 45.3026 23.1619 45.1274 23.3266 44.9186 23.4198 44.6764 23.4412L26.0263 25.0982 27.1596 37.8546 42.9435 36.4523C43.1858 36.4308 43.4144 36.4851 43.6294 36.6151 43.8444 36.7453 44.0329 36.9591 44.1949 37.2566 44.357 37.5541 44.495 37.9623 44.6089 38.4811 44.7228 38.9999 44.8132 39.6361 44.8802 40.3896 44.9495 41.1701 44.9732 41.819 44.9514 42.3363 44.9295 42.8536 44.8651 43.273 44.758 43.5944 44.6509 43.9159 44.5024 44.1529 44.3126 44.3053 44.1227 44.4578 43.9066 44.5448 43.6644 44.5664L27.8804 45.9686 29.1894 60.7031 48.0011 59.0318C48.2433 59.0103 48.4719 59.0646 48.6869 59.1947 48.9019 59.3247 49.091 59.5453 49.2542 59.8563 49.4175 60.1673 49.5561 60.5822 49.67 61.101 49.7839 61.6198 49.8755 62.2694 49.9448 63.0499 50.0142 63.8303 50.0385 64.4859 50.0179 65.0167 49.9972 65.5474 49.9339 65.9803 49.8281 66.3152 49.7222 66.6501 49.5749 66.9005 49.3862 67.0665 49.1975 67.2324 48.9821 67.3262 48.7399 67.3477L22.5004 69.6789C21.6123 69.7577 20.8422 69.5617 20.1901 69.0907 19.5379 68.6197 19.1592 67.7921 19.0541 66.608L15.0086 21.0725C14.9034 19.8884 15.1303 19.007 15.6892 18.4284 16.2481 17.8498 16.9716 17.5211 17.8597 17.4422Z"
               fill="#FFFFFF"
               fill-rule="evenodd"
               fill-opacity="1"
               id="path79" /></g></g></g><path
         d="M821.998 1175.58 848.076 1173.26C848.318 1173.24 848.54 1173.29 848.74 1173.41 848.94 1173.53 849.123 1173.75 849.287 1174.07 849.452 1174.4 849.591 1174.82 849.705 1175.34 849.819 1175.86 849.911 1176.52 849.983 1177.33 850.05 1178.08 850.073 1178.72 850.053 1179.25 850.032 1179.78 849.969 1180.22 849.863 1180.55 849.757 1180.89 849.616 1181.14 849.441 1181.3 849.266 1181.47 849.057 1181.56 848.815 1181.58L830.165 1183.24 831.298 1195.99 847.082 1194.59C847.324 1194.57 847.553 1194.62 847.768 1194.75 847.983 1194.88 848.172 1195.1 848.334 1195.4 848.496 1195.69 848.634 1196.1 848.747 1196.62 848.861 1197.14 848.952 1197.77 849.019 1198.53 849.088 1199.31 849.112 1199.96 849.09 1200.47 849.068 1200.99 849.004 1201.41 848.897 1201.73 848.79 1202.05 848.641 1202.29 848.451 1202.44 848.261 1202.6 848.045 1202.68 847.803 1202.7L832.019 1204.11 833.328 1218.84 852.14 1217.17C852.382 1217.15 852.611 1217.2 852.826 1217.33 853.041 1217.46 853.23 1217.68 853.393 1217.99 853.556 1218.31 853.695 1218.72 853.809 1219.24 853.923 1219.76 854.014 1220.41 854.083 1221.19 854.153 1221.97 854.177 1222.62 854.156 1223.16 854.136 1223.69 854.073 1224.12 853.967 1224.45 853.861 1224.79 853.714 1225.04 853.525 1225.21 853.336 1225.37 853.121 1225.46 852.879 1225.49L826.639 1227.82C825.751 1227.9 824.981 1227.7 824.329 1227.23 823.677 1226.76 823.298 1225.93 823.193 1224.75L819.147 1179.21C819.042 1178.03 819.269 1177.15 819.828 1176.57 820.387 1175.99 821.11 1175.66 821.998 1175.58Z"
         fill="#FFFFFF"
         fill-rule="evenodd"
         fill-opacity="1"
         id="path81" /><text
         fill="#000000"
         fill-opacity="0"
         font-family="Arial,Arial_MSFontService,sans-serif"
         font-size="54.5754"
         direction="ltr"
         writing-mode="lr-tb"
         x="819.122"
         y="1221.01"
         id="text81">E</text><g
         clip-path="url(#clip26)"
         filter="url(#fx10)"
         transform="translate(845 1161)"
         id="g84"><g
           id="g83"><g
             id="g82"><path
               d="M20.1536 14.9041C21.1917 14.7237 22.0505 14.6155 22.7298 14.5797 23.4092 14.5439 23.9601 14.5578 24.3825 14.6215 24.8049 14.6852 25.1212 14.8085 25.3312 14.9914 25.5412 15.1743 25.6694 15.3988 25.7156 15.665L32.9401 57.2308 49.1911 54.4062C49.4573 54.3599 49.7029 54.3927 49.928 54.5044 50.1531 54.6161 50.3611 54.8267 50.5521 55.1364 50.743 55.4459 50.9192 55.8678 51.0806 56.4019 51.2419 56.9361 51.392 57.6024 51.5309 58.401 51.6697 59.1996 51.7532 59.8775 51.7815 60.4348 51.8098 60.992 51.7886 61.4619 51.718 61.8444 51.6473 62.2269 51.5261 62.5153 51.3542 62.7097 51.1823 62.9041 50.9633 63.0245 50.6971 63.0708L27.0194 67.1862C26.1409 67.3388 25.3572 67.2077 24.668 66.7927 23.9789 66.3778 23.5325 65.5846 23.3289 64.4134L15.1745 17.4972C15.1282 17.231 15.1731 16.9763 15.3091 16.7333 15.4451 16.4903 15.7012 16.2675 16.0773 16.065 16.4535 15.8626 16.974 15.6624 17.6389 15.4646 18.3038 15.2667 19.142 15.0799 20.1536 14.9041Z"
               fill="#FFFFFF"
               fill-rule="evenodd"
               fill-opacity="1"
               id="path82" /></g></g></g><path
         d="M860.292 1171.04C861.33 1170.86 862.189 1170.75 862.868 1170.72 863.548 1170.68 864.099 1170.7 864.521 1170.76 864.944 1170.82 865.26 1170.95 865.47 1171.13 865.68 1171.31 865.808 1171.54 865.854 1171.8L873.079 1213.37 889.33 1210.54C889.596 1210.5 889.842 1210.53 890.067 1210.64 890.292 1210.75 890.5 1210.97 890.691 1211.28 890.882 1211.58 891.058 1212.01 891.219 1212.54 891.381 1213.07 891.531 1213.74 891.669 1214.54 891.808 1215.34 891.892 1216.02 891.92 1216.57 891.948 1217.13 891.927 1217.6 891.857 1217.98 891.786 1218.37 891.665 1218.65 891.493 1218.85 891.321 1219.04 891.102 1219.16 890.836 1219.21L867.158 1223.32C866.28 1223.48 865.496 1223.35 864.807 1222.93 864.117 1222.52 863.671 1221.72 863.468 1220.55L855.313 1173.64C855.267 1173.37 855.312 1173.11 855.448 1172.87 855.584 1172.63 855.84 1172.41 856.216 1172.2 856.592 1172 857.113 1171.8 857.778 1171.6 858.443 1171.41 859.281 1171.22 860.292 1171.04Z"
         fill="#FFFFFF"
         fill-rule="evenodd"
         fill-opacity="1"
         id="path84" /><text
         fill="#000000"
         fill-opacity="0"
         font-family="Arial,Arial_MSFontService,sans-serif"
         font-size="52.6874"
         direction="ltr"
         writing-mode="lr-tb"
         x="855.295"
         y="1216.8"
         id="text84">L</text><g
         clip-path="url(#clip27)"
         filter="url(#fx11)"
         transform="translate(878 1149)"
         id="g87"><g
           id="g86"><g
             id="g85"><path
               d="M32.6636 16.2486C34.0726 15.8699 35.461 15.6226 36.8287 15.5068 38.1964 15.391 39.4856 15.3733 40.6962 15.4536 41.9068 15.5338 43.0223 15.7027 44.0427 15.96 45.063 16.2173 45.7967 16.4748 46.2436 16.7323 46.6906 16.9899 47.0108 17.2186 47.2043 17.4184 47.3979 17.6181 47.5829 17.8901 47.7594 18.2343 47.9359 18.5786 48.1103 18.9934 48.2827 19.4786 48.455 19.9638 48.6394 20.5717 48.8358 21.3023 49.0461 22.0851 49.1989 22.7575 49.294 23.3194 49.389 23.8814 49.4169 24.3495 49.3777 24.7238 49.3383 25.098 49.2484 25.388 49.1078 25.5936 48.9673 25.7993 48.7796 25.9336 48.5447 25.9967 48.1534 26.102 47.5963 26.0069 46.8734 25.7116 46.1505 25.4162 45.2375 25.1161 44.1344 24.8111 43.0313 24.506 41.7595 24.3023 40.3191 24.1998 38.8788 24.0973 37.2453 24.2915 35.4189 24.7824 33.4098 25.3224 31.7264 26.2155 30.3687 27.4617 29.011 28.7078 27.9829 30.2431 27.2842 32.0676 26.5855 33.8921 26.2402 35.9642 26.2482 38.2841 26.2562 40.6041 26.6249 43.1209 27.3542 45.8344 28.1537 48.809 29.1528 51.3032 30.3515 53.3171 31.5502 55.331 32.9064 56.8899 34.4201 57.9939 35.9338 59.0978 37.5859 59.7798 39.3765 60.04 41.167 60.3001 43.0668 60.1602 45.0759 59.6203 46.9023 59.1294 48.4231 58.4898 49.6381 57.7017 50.8531 56.9135 51.8666 56.1305 52.6787 55.3527 53.4908 54.5749 54.1474 53.8949 54.6483 53.3126 55.1493 52.7303 55.5694 52.3936 55.9086 52.3024 56.1695 52.2323 56.3923 52.2284 56.5769 52.2906 56.7615 52.3529 56.9481 52.5266 57.1366 52.8117 57.3251 53.0967 57.5208 53.5127 57.7238 54.0597 57.9268 54.6067 58.1545 55.3498 58.4069 56.2891 58.5822 56.9414 58.7117 57.5011 58.7953 57.9683 58.8788 58.4354 58.9254 58.8426 58.9347 59.1898 58.9441 59.5369 58.9151 59.8455 58.8478 60.1154 58.7804 60.3853 58.6436 60.7088 58.4372 61.086 58.2308 61.4632 57.7798 61.9971 57.0841 62.6876 56.3884 63.3783 55.5049 64.0983 54.4334 64.8479 53.3619 65.5975 52.1015 66.3209 50.6523 67.0182 49.203 67.7155 47.5912 68.3025 45.817 68.7794 42.3467 69.7121 39.0719 70.0187 35.9925 69.6993 32.9131 69.3799 30.1092 68.4199 27.5807 66.8194 25.0522 65.2188 22.8384 62.9671 20.9391 60.0644 19.0399 57.1616 17.5222 53.5968 16.3862 49.3698 15.2291 45.0646 14.7758 41.0878 15.0262 37.4394 15.2766 33.791 16.1274 30.5548 17.5786 27.7308 19.0298 24.9068 21.0392 22.5202 23.6068 20.5712 26.1744 18.6222 29.1934 17.1812 32.6636 16.2486Z"
               fill="#FFFFFF"
               fill-rule="evenodd"
               fill-opacity="1"
               id="path85" /></g></g></g><path
         d="M905.802 1160.39C907.211 1160.01 908.6 1159.76 909.967 1159.65 911.335 1159.53 912.624 1159.51 913.835 1159.59 915.045 1159.67 916.161 1159.84 917.181 1160.1 918.202 1160.36 918.935 1160.61 919.382 1160.87 919.829 1161.13 920.149 1161.36 920.343 1161.56 920.537 1161.76 920.722 1162.03 920.898 1162.37 921.075 1162.72 921.249 1163.13 921.421 1163.62 921.594 1164.1 921.778 1164.71 921.974 1165.44 922.185 1166.22 922.338 1166.9 922.433 1167.46 922.528 1168.02 922.556 1168.49 922.516 1168.86 922.477 1169.24 922.387 1169.53 922.247 1169.73 922.106 1169.94 921.918 1170.07 921.683 1170.14 921.292 1170.24 920.735 1170.15 920.012 1169.85 919.289 1169.55 918.376 1169.25 917.273 1168.95 916.17 1168.64 914.898 1168.44 913.458 1168.34 912.017 1168.24 910.384 1168.43 908.558 1168.92 906.548 1169.46 904.865 1170.35 903.507 1171.6 902.15 1172.85 901.122 1174.38 900.423 1176.21 899.724 1178.03 899.379 1180.1 899.387 1182.42 899.395 1184.74 899.764 1187.26 900.493 1189.97 901.292 1192.95 902.291 1195.44 903.49 1197.46 904.689 1199.47 906.045 1201.03 907.559 1202.13 909.073 1203.24 910.725 1203.92 912.515 1204.18 914.306 1204.44 916.205 1204.3 918.215 1203.76 920.041 1203.27 921.562 1202.63 922.777 1201.84 923.992 1201.05 925.005 1200.27 925.817 1199.49 926.63 1198.71 927.286 1198.03 927.787 1197.45 928.288 1196.87 928.708 1196.53 929.047 1196.44 929.308 1196.37 929.531 1196.37 929.716 1196.43 929.9 1196.49 930.087 1196.67 930.275 1196.95 930.464 1197.24 930.659 1197.65 930.862 1198.2 931.065 1198.75 931.293 1199.49 931.546 1200.43 931.721 1201.08 931.85 1201.64 931.934 1202.11 932.017 1202.57 932.064 1202.98 932.073 1203.33 932.083 1203.68 932.054 1203.98 931.986 1204.25 931.919 1204.52 931.782 1204.85 931.576 1205.22 931.369 1205.6 930.918 1206.14 930.223 1206.83 929.527 1207.52 928.644 1208.24 927.572 1208.99 926.501 1209.74 925.24 1210.46 923.791 1211.16 922.342 1211.85 920.73 1212.44 918.956 1212.92 915.485 1213.85 912.211 1214.16 909.131 1213.84 906.052 1213.52 903.248 1212.56 900.719 1210.96 898.191 1209.36 895.977 1207.11 894.078 1204.2 892.179 1201.3 890.661 1197.74 889.525 1193.51 888.368 1189.2 887.914 1185.23 888.165 1181.58 888.415 1177.93 889.266 1174.69 890.717 1171.87 892.168 1169.05 894.178 1166.66 896.745 1164.71 899.313 1162.76 902.332 1161.32 905.802 1160.39Z"
         fill="#FFFFFF"
         fill-rule="evenodd"
         fill-opacity="1"
         id="path87" /><text
         fill="#000000"
         fill-opacity="0"
         font-family="Arial,Arial_MSFontService,sans-serif"
         font-size="54.4172"
         direction="ltr"
         writing-mode="lr-tb"
         x="888.098"
         y="1207.16"
         id="text87">C</text><g
         clip-path="url(#clip28)"
         filter="url(#fx12)"
         transform="translate(925 1137)"
         id="g90"><g
           id="g89"><g
             id="g88"><path
               d="M23.7525 26.8026 25.0076 50.2606 38.8494 44.8176 23.7902 26.7878ZM20.1511 17.2011C21.6346 16.6178 22.8238 16.1719 23.7187 15.8636 24.6136 15.5552 25.3334 15.3738 25.878 15.3193 26.4227 15.2648 26.8563 15.3338 27.1788 15.5263 27.5013 15.7189 27.8319 16.0244 28.1706 16.4428L60.2682 53.7707C60.926 54.5573 61.3963 55.1997 61.6794 55.6981 61.9625 56.1964 62.0176 56.632 61.8448 57.0048 61.6721 57.3776 61.246 57.7338 60.5667 58.0735 59.8874 58.4132 58.9317 58.8253 57.6996 59.3098 56.4173 59.814 55.4104 60.1882 54.679 60.4323 53.9475 60.6764 53.371 60.816 52.9493 60.8512 52.5276 60.8863 52.2018 60.833 51.9719 60.6911 51.7419 60.5493 51.5124 60.3347 51.2833 60.0474L44.1459 51.5315 25.8159 58.7394 26.4754 69.4978C26.5132 69.8893 26.4974 70.2367 26.4279 70.5398 26.3584 70.8429 26.1686 71.1353 25.8583 71.417 25.5482 71.6986 25.0698 71.9956 24.4232 72.3079 23.7767 72.6203 22.9128 72.989 21.8316 73.4141 20.675 73.8689 19.755 74.1872 19.0716 74.3688 18.3882 74.5504 17.8639 74.5461 17.4987 74.3559 17.1336 74.1656 16.8849 73.7916 16.7527 73.2339 16.6205 72.6762 16.5322 71.898 16.4879 70.8993L14.5106 21.6836C14.4934 21.1969 14.5334 20.7819 14.6308 20.4388 14.7281 20.0957 14.9696 19.7685 15.3552 19.4572 15.7409 19.1458 16.316 18.8181 17.0806 18.4738 17.8453 18.1296 18.8688 17.7053 20.1511 17.2011Z"
               fill="#FFFFFF"
               fill-rule="evenodd"
               fill-opacity="1"
               id="path88" /></g></g></g><path
         d="M943.891 1158.94 945.146 1182.4 958.988 1176.96 943.929 1158.93ZM940.29 1149.34C941.773 1148.76 942.962 1148.31 943.857 1148 944.752 1147.69 945.472 1147.51 946.017 1147.46 946.561 1147.4 946.995 1147.47 947.317 1147.66 947.64 1147.86 947.971 1148.16 948.309 1148.58L980.407 1185.91C981.065 1186.7 981.535 1187.34 981.818 1187.84 982.101 1188.34 982.156 1188.77 981.983 1189.14 981.811 1189.52 981.385 1189.87 980.705 1190.21 980.026 1190.55 979.07 1190.96 977.838 1191.45 976.556 1191.95 975.549 1192.33 974.818 1192.57 974.086 1192.81 973.51 1192.95 973.088 1192.99 972.666 1193.02 972.34 1192.97 972.111 1192.83 971.881 1192.69 971.651 1192.47 971.422 1192.19L964.285 1183.67 945.955 1190.88 946.614 1201.64C946.652 1202.03 946.636 1202.38 946.567 1202.68 946.497 1202.98 946.307 1203.27 945.997 1203.56 945.687 1203.84 945.208 1204.13 944.562 1204.45 943.915 1204.76 943.051 1205.13 941.97 1205.55 940.814 1206.01 939.894 1206.33 939.21 1206.51 938.527 1206.69 938.003 1206.68 937.637 1206.49 937.272 1206.3 937.024 1205.93 936.891 1205.37 936.759 1204.81 936.671 1204.04 936.627 1203.04L934.649 1153.82C934.632 1153.34 934.672 1152.92 934.769 1152.58 934.867 1152.23 935.108 1151.91 935.494 1151.6 935.88 1151.28 936.455 1150.96 937.219 1150.61 937.984 1150.27 939.007 1149.84 940.29 1149.34Z"
         fill="#FFFFFF"
         fill-rule="evenodd"
         fill-opacity="1"
         id="path90" /><text
         fill="#000000"
         fill-opacity="0"
         font-family="Arial,Arial_MSFontService,sans-serif"
         font-size="59.2007"
         direction="ltr"
         writing-mode="lr-tb"
         x="934.645"
         y="1199.24"
         id="text90">A</text><g
         clip-path="url(#clip29)"
         filter="url(#fx13)"
         transform="translate(1027 1064)"
         id="g93"><g
           id="g92"><g
             id="g91"><path
               d="M16.119 32.6953 35.4967 15.0903C35.6767 14.9268 35.882 14.8315 36.1129 14.8042 36.3437 14.7771 36.6226 14.843 36.9497 15.0022 37.2768 15.1613 37.6425 15.4131 38.0468 15.7577 38.4511 16.1022 38.9257 16.5744 39.4708 17.1743 39.9795 17.7343 40.386 18.2319 40.6903 18.6673 40.9945 19.1026 41.2057 19.4857 41.3238 19.8166 41.4418 20.1474 41.4807 20.4314 41.4407 20.6685 41.4007 20.9057 41.2906 21.106 41.1107 21.2696L27.2523 33.8601 35.8641 43.339 47.5926 32.6833C47.7726 32.5197 47.9876 32.4249 48.2374 32.3986 48.4874 32.3723 48.7668 32.4287 49.0757 32.5679 49.3846 32.707 49.7412 32.9488 50.1455 33.2934 50.5498 33.6379 51.0062 34.0901 51.515 34.6501 52.0418 35.23 52.4529 35.7326 52.7481 36.1581 53.0433 36.5834 53.2454 36.9565 53.3543 37.2773 53.4633 37.5981 53.4882 37.8767 53.429 38.1129 53.3699 38.3492 53.2503 38.549 53.0703 38.7126L41.3418 49.3682 51.2889 60.3169 65.2672 47.6173C65.4471 47.4538 65.6621 47.3589 65.912 47.3326 66.1619 47.3063 66.4458 47.3678 66.7639 47.5169 67.0819 47.666 67.443 47.9128 67.8473 48.2574 68.2515 48.6019 68.7171 49.0641 69.244 49.6441 69.7709 50.224 70.1864 50.7317 70.4907 51.167 70.795 51.6024 71.0062 51.9854 71.1242 52.3162 71.2423 52.6471 71.2762 52.9356 71.2262 53.1819 71.1761 53.4281 71.0611 53.633 70.8811 53.7965L51.3835 71.5105C50.7236 72.1101 49.9915 72.4192 49.1873 72.4381 48.3831 72.4569 47.5813 72.0264 46.7819 71.1465L16.0413 37.3106C15.2419 36.4308 14.89 35.5915 14.9857 34.7927 15.0814 33.994 15.4591 33.2948 16.119 32.6953Z"
               fill="#FFFFFF"
               fill-rule="evenodd"
               fill-opacity="1"
               id="path91" /></g></g></g><path
         d="M1038.26 1091.83 1057.64 1074.23C1057.82 1074.07 1058.02 1073.97 1058.25 1073.94 1058.48 1073.92 1058.76 1073.98 1059.09 1074.14 1059.42 1074.3 1059.78 1074.55 1060.19 1074.9 1060.59 1075.24 1061.06 1075.71 1061.61 1076.31 1062.12 1076.87 1062.52 1077.37 1062.83 1077.81 1063.13 1078.24 1063.34 1078.62 1063.46 1078.96 1063.58 1079.29 1063.62 1079.57 1063.58 1079.81 1063.54 1080.04 1063.43 1080.24 1063.25 1080.41L1049.39 1093 1058 1102.48 1069.73 1091.82C1069.91 1091.66 1070.13 1091.56 1070.38 1091.54 1070.63 1091.51 1070.91 1091.57 1071.21 1091.71 1071.52 1091.85 1071.88 1092.09 1072.28 1092.43 1072.69 1092.78 1073.14 1093.23 1073.65 1093.79 1074.18 1094.37 1074.59 1094.87 1074.89 1095.3 1075.18 1095.72 1075.38 1096.1 1075.49 1096.42 1075.6 1096.74 1075.63 1097.02 1075.57 1097.25 1075.51 1097.49 1075.39 1097.69 1075.21 1097.85L1063.48 1108.51 1073.43 1119.46 1087.41 1106.76C1087.59 1106.59 1087.8 1106.5 1088.05 1106.47 1088.3 1106.44 1088.58 1106.51 1088.9 1106.66 1089.22 1106.8 1089.58 1107.05 1089.99 1107.4 1090.39 1107.74 1090.86 1108.2 1091.38 1108.78 1091.91 1109.36 1092.33 1109.87 1092.63 1110.31 1092.93 1110.74 1093.14 1111.12 1093.26 1111.45 1093.38 1111.79 1093.41 1112.07 1093.36 1112.32 1093.31 1112.57 1093.2 1112.77 1093.02 1112.94L1073.52 1130.65C1072.86 1131.25 1072.13 1131.56 1071.33 1131.58 1070.52 1131.6 1069.72 1131.17 1068.92 1130.29L1038.18 1096.45C1037.38 1095.57 1037.03 1094.73 1037.12 1093.93 1037.22 1093.13 1037.6 1092.43 1038.26 1091.83Z"
         fill="#FFFFFF"
         fill-rule="evenodd"
         fill-opacity="1"
         id="path93" /><text
         fill="#000000"
         fill-opacity="0"
         font-family="Arial,Arial_MSFontService,sans-serif"
         font-size="57.6405"
         direction="ltr"
         writing-mode="lr-tb"
         x="1037.11"
         y="1124.37"
         id="text93">E</text><g
         clip-path="url(#clip30)"
         filter="url(#fx14)"
         transform="translate(1053 1015)"
         id="g96"><g
           id="g95"><g
             id="g94"><path
               d="M15.9317 58.6432 20.2636 53.1819C21.0359 52.2082 21.7785 51.4351 22.4914 50.8625 23.2042 50.2899 23.9473 49.8965 24.7207 49.6823 25.4941 49.4681 26.3168 49.4309 27.1887 49.5707 28.0606 49.7106 29.0418 50.0061 30.1324 50.4573L61.6647 60.985 61.7654 60.8579 44.6524 32.2823C43.9816 31.302 43.4694 30.4043 43.1158 29.5892 42.7622 28.7742 42.567 27.9986 42.5302 27.2625 42.4934 26.5263 42.6306 25.7989 42.942 25.0803 43.2534 24.3617 43.7197 23.6108 44.341 22.8275L48.7988 17.2076C49.2522 16.636 49.7166 16.2027 50.1922 15.9074 50.6677 15.6122 51.1534 15.4456 51.649 15.4077 52.1447 15.3698 52.6535 15.4457 53.1754 15.6355 53.6972 15.8254 54.2228 16.1301 54.752 16.5499L91.3614 45.5888C91.5731 45.7567 91.7174 45.9661 91.7944 46.2168 91.8714 46.4676 91.8411 46.7884 91.7034 47.1793 91.5658 47.5701 91.3273 48.0448 90.9878 48.6031 90.6483 49.1616 90.168 49.8324 89.5468 50.6156 88.9423 51.3776 88.4068 51.9874 87.9404 52.4451 87.4739 52.9027 87.0702 53.2378 86.7293 53.4502 86.3884 53.6626 86.0829 53.7651 85.8128 53.7578 85.5427 53.7505 85.3018 53.6628 85.0902 53.4949L51.6559 26.9746 51.6055 27.0381 75.5635 65.44C75.7715 65.743 75.8899 66.0611 75.9187 66.3943 75.9475 66.7275 75.8847 67.1002 75.7303 67.5122 75.5759 67.9243 75.3131 68.3969 74.9418 68.9301 74.5706 69.4633 74.0996 70.0898 73.5288 70.8095 72.9578 71.5291 72.4445 72.122 71.9886 72.5881 71.5327 73.0541 71.1164 73.4051 70.7398 73.6408 70.3631 73.8766 70.0145 74.0225 69.6941 74.0787 69.3736 74.1349 69.0718 74.1024 68.7886 73.9812L26.2689 58.98 26.2185 59.0435 59.6528 85.5639C59.8645 85.7318 60.0088 85.9411 60.0858 86.1919 60.1628 86.4426 60.1283 86.7687 59.9823 87.1702 59.8362 87.5716 59.5977 88.0463 59.2666 88.5941 58.9356 89.1419 58.4594 89.8074 57.8382 90.5906 57.2337 91.3526 56.6982 91.9625 56.2318 92.4201 55.7653 92.8778 55.3574 93.2181 55.0081 93.4411 54.6588 93.6641 54.3533 93.7666 54.0916 93.7487 53.8299 93.7308 53.5933 93.6379 53.3815 93.47L16.7722 64.4311C15.6926 63.5747 15.0938 62.6341 14.9755 61.6093 14.8574 60.5844 15.1761 59.5957 15.9317 58.6432Z"
               fill="#FFFFFF"
               fill-rule="evenodd"
               fill-opacity="1"
               id="path94" /></g></g></g><path
         d="M1064.07 1068.78 1068.4 1063.32C1069.17 1062.35 1069.92 1061.57 1070.63 1061 1071.34 1060.43 1072.09 1060.04 1072.86 1059.82 1073.63 1059.61 1074.46 1059.57 1075.33 1059.71 1076.2 1059.85 1077.18 1060.14 1078.27 1060.6L1109.8 1071.12 1109.9 1071 1092.79 1042.42C1092.12 1041.44 1091.61 1040.54 1091.25 1039.73 1090.9 1038.91 1090.71 1038.14 1090.67 1037.4 1090.63 1036.67 1090.77 1035.94 1091.08 1035.22 1091.39 1034.5 1091.86 1033.75 1092.48 1032.97L1096.94 1027.35C1097.39 1026.77 1097.86 1026.34 1098.33 1026.05 1098.81 1025.75 1099.29 1025.58 1099.79 1025.55 1100.28 1025.51 1100.79 1025.58 1101.31 1025.77 1101.84 1025.96 1102.36 1026.27 1102.89 1026.69L1139.5 1055.73C1139.71 1055.9 1139.86 1056.1 1139.93 1056.36 1140.01 1056.61 1139.98 1056.93 1139.84 1057.32 1139.7 1057.71 1139.47 1058.18 1139.13 1058.74 1138.79 1059.3 1138.31 1059.97 1137.69 1060.75 1137.08 1061.52 1136.55 1062.13 1136.08 1062.58 1135.61 1063.04 1135.21 1063.38 1134.87 1063.59 1134.53 1063.8 1134.22 1063.9 1133.95 1063.9 1133.68 1063.89 1133.44 1063.8 1133.23 1063.63L1099.79 1037.11 1099.74 1037.18 1123.7 1075.58C1123.91 1075.88 1124.03 1076.2 1124.06 1076.53 1124.09 1076.87 1124.02 1077.24 1123.87 1077.65 1123.71 1078.06 1123.45 1078.54 1123.08 1079.07 1122.71 1079.6 1122.24 1080.23 1121.67 1080.95 1121.1 1081.67 1120.58 1082.26 1120.13 1082.73 1119.67 1083.19 1119.26 1083.54 1118.88 1083.78 1118.5 1084.02 1118.15 1084.16 1117.83 1084.22 1117.51 1084.27 1117.21 1084.24 1116.93 1084.12L1074.41 1069.12 1074.36 1069.18 1107.79 1095.7C1108 1095.87 1108.15 1096.08 1108.22 1096.33 1108.3 1096.58 1108.27 1096.91 1108.12 1097.31 1107.97 1097.71 1107.74 1098.18 1107.41 1098.73 1107.07 1099.28 1106.6 1099.95 1105.98 1100.73 1105.37 1101.49 1104.84 1102.1 1104.37 1102.56 1103.9 1103.02 1103.5 1103.36 1103.15 1103.58 1102.8 1103.8 1102.49 1103.91 1102.23 1103.89 1101.97 1103.87 1101.73 1103.78 1101.52 1103.61L1064.91 1074.57C1063.83 1073.71 1063.23 1072.77 1063.11 1071.75 1063 1070.72 1063.31 1069.73 1064.07 1068.78Z"
         fill="#FFFFFF"
         fill-rule="evenodd"
         fill-opacity="1"
         id="path96" /><text
         fill="#000000"
         fill-opacity="0"
         font-family="Arial,Arial_MSFontService,sans-serif"
         font-size="78.3524"
         direction="ltr"
         writing-mode="lr-tb"
         x="1063.09"
         y="1094.1"
         id="text96">M</text><g
         clip-path="url(#clip31)"
         filter="url(#fx15)"
         transform="translate(1092 1000)"
         id="g99"><g
           id="g98"><g
             id="g97"><path
               d="M16.3939 18.7127C16.9223 17.801 17.3909 17.0733 17.7998 16.5296 18.2086 15.9858 18.5731 15.5725 18.8931 15.2896 19.2133 15.0067 19.5109 14.8435 19.7859 14.7999 20.061 14.7564 20.3154 14.8023 20.5492 14.9378L63.3969 39.7721C63.6306 39.9076 63.797 40.1055 63.896 40.3658 63.9949 40.6261 64.0012 40.9655 63.9148 41.3839 63.8285 41.8022 63.651 42.3239 63.3825 42.949 63.1138 43.574 62.7154 44.3423 62.187 45.254 61.6721 46.1423 61.2069 46.8641 60.7913 47.4196 60.3757 47.975 60.0078 48.3942 59.6878 48.6771 59.3676 48.96 59.07 49.1232 58.795 49.1667 58.5199 49.2103 58.2655 49.1643 58.0318 49.0289L15.184 24.1946C14.9502 24.0591 14.7839 23.8612 14.685 23.6009 14.586 23.3406 14.5831 22.9954 14.6762 22.5653 14.7694 22.1352 14.9502 21.6077 15.2188 20.9826 15.4874 20.3576 15.879 19.601 16.3939 18.7127Z"
               fill="#FFFFFF"
               fill-rule="evenodd"
               fill-opacity="1"
               id="path97" /></g></g></g><path
         d="M1103.53 1013.85C1104.06 1012.94 1104.53 1012.21 1104.94 1011.67 1105.35 1011.12 1105.71 1010.71 1106.03 1010.43 1106.35 1010.15 1106.65 1009.98 1106.92 1009.94 1107.2 1009.9 1107.45 1009.94 1107.69 1010.08L1150.54 1034.91C1150.77 1035.05 1150.94 1035.24 1151.03 1035.5 1151.13 1035.76 1151.14 1036.1 1151.05 1036.52 1150.97 1036.94 1150.79 1037.46 1150.52 1038.09 1150.25 1038.71 1149.85 1039.48 1149.33 1040.39 1148.81 1041.28 1148.35 1042 1147.93 1042.56 1147.51 1043.11 1147.15 1043.53 1146.83 1043.82 1146.51 1044.1 1146.21 1044.26 1145.93 1044.31 1145.66 1044.35 1145.4 1044.3 1145.17 1044.17L1102.32 1019.33C1102.09 1019.2 1101.92 1019 1101.82 1018.74 1101.72 1018.48 1101.72 1018.13 1101.81 1017.7 1101.91 1017.27 1102.09 1016.75 1102.36 1016.12 1102.63 1015.5 1103.02 1014.74 1103.53 1013.85Z"
         fill="#FFFFFF"
         fill-rule="evenodd"
         fill-opacity="1"
         id="path99" /><text
         fill="#000000"
         fill-opacity="0"
         font-family="Arial,Arial_MSFontService,sans-serif"
         font-size="34.3986"
         direction="ltr"
         writing-mode="lr-tb"
         x="1101.75"
         y="1040.02"
         id="text99">I</text><path
         d="M1145 939 1136.75 972 464.25 972 456 939Z"
         fill="#FFFFFF"
         fill-rule="evenodd"
         fill-opacity="1"
         id="path100" /><path
         d="M1103 972 1111.5 938 1145 938 1136.5 972Z"
         fill="#1C99F5"
         fill-rule="evenodd"
         fill-opacity="1"
         id="path101" /><path
         d="M0 34 8.50003 0 41.9999 0 33.5 34Z"
         fill="#1C99F5"
         fill-rule="evenodd"
         fill-opacity="1"
         transform="matrix(1 -1.22465e-16 -1.22465e-16 -1 452 972)"
         id="path102" /><text
         xml:space="preserve"
         style="font-size:29.3333px;fill:#000000;stroke-width:1.01282"
         x="588.79736"
         y="952.25354"
         id="text1"
         transform="scale(0.98733838,1.012824)"><tspan
           sodipodi:role="line"
           id="tspan1"
           x="588.79736"
           y="952.25354"
           style="font-size:29.3333px;stroke-width:1.01282">github.com/lab-emi/OpenDPD</tspan></text></g></g></svg>
